<?xml version="1.0" encoding="iso-8859-1"?>
<!-- Uploaded to: SVG Repo, www.svgrepo.com, Generator: SVG Repo Mixer Tools -->
<svg height="800px" width="800px" version="1.1" id="Layer_1" xmlns="http://www.w3.org/2000/svg" xmlns:xlink="http://www.w3.org/1999/xlink" 
	 viewBox="0 0 503.814 503.814" xml:space="preserve">
<path style="fill:#145499;" d="M468.314,171.707c-15.2,0-28.8-2.4-41.6-5.6c-17.6-9.6-40.8-15.2-65.6-15.2c-24,0-45.6,5.6-62.4,14.4
	c-14.4,4-30.4,6.4-47.2,6.4c-16.8,0-32.8-2.4-46.4-7.2c-17.6-8.8-39.2-14.4-63.2-14.4c-24.8,0-48,5.6-65.6,15.2
	c-12.8,4-26.4,6.4-41.6,6.4c-9.6,0-18.4,0-27.2-1.6l76,297.6h336l75.2-297.6C486.714,170.907,477.114,171.707,468.314,171.707z"/>
<path style="fill:#BCC4C4;" d="M501.114,163.707c-1.6-2.4-4.8-3.2-8-2.4c-22.4,4-44,2.4-64-3.2c-20-10.4-44-16-68.8-16
	c-24,0-46.4,4.8-65.6,14.4c-27.2,8-59.2,8-86.4,0c-19.2-9.6-42.4-14.4-65.6-14.4c-24.8,0-48.8,5.6-68.8,16
	c-20.8,5.6-42.4,6.4-64,3.2c-3.2-0.8-5.6,0.8-8,2.4c-1.6,2.4-2.4,4.8-1.6,8l75.2,297.6c0.8,4,4,6.4,8,6.4h336c4,0,7.2-3.2,8-6.4
	l76-297.6C504.314,168.507,503.514,165.307,501.114,163.707z"/>
<path style="fill:#A8B1B2;" d="M426.714,193.307c-17.6-9.6-40.8-15.2-65.6-15.2c-24,0-45.6,5.6-62.4,14.4c-13.6,4-29.6,7.2-46.4,7.2
	c-16.8,0-32.8-2.4-46.4-7.2c-17.6-8.8-39.2-14.4-63.2-14.4c-24.8,0-48,5.6-65.6,15.2c-12.8,3.2-27.2,5.6-41.6,5.6
	c-6.4,0-13.6,0-20-0.8l68,269.6h336l68-269.6c-6.4,0.8-12.8,0.8-20,0.8C453.114,199.707,439.514,197.307,426.714,193.307z"/>
<path style="fill:#939EA0;" d="M426.714,221.307c-17.6-9.6-40.8-15.2-65.6-15.2c-24,0-45.6,5.6-62.4,14.4c-13.6,4-29.6,7.2-46.4,7.2
	c-16.8,0-32.8-2.4-46.4-7.2c-17.6-8.8-39.2-14.4-63.2-14.4c-24.8,0-48,5.6-65.6,15.2c-12.8,3.2-27.2,5.6-41.6,5.6c-4,0-8,0-12.8,0
	l60.8,240.8h336l60.8-240.8c-4,0-8,0-12.8,0C453.114,226.907,439.514,224.507,426.714,221.307z"/>
<path style="fill:#778587;" d="M419.514,466.907l60.8-240c-4,0-8,0.8-12.8,0.8c-15.2,0-28.8-2.4-41.6-5.6
	c-17.6-9.6-40.8-15.2-65.6-15.2c-24,0-45.6,5.6-62.4,14.4c-13.6,4-29.6,7.2-46.4,7.2c-16.8,0-32.8-2.4-46.4-7.2
	c-17.6-8.8-39.2-14.4-63.2-14.4c-24.8,0-48,5.6-65.6,15.2c-12.8,3.2-27.2,5.6-41.6,5.6c-4,0-8,0-12.8-0.8"/>
<circle style="fill:#BCC4C4;" cx="102.714" cy="275.707" r="17.6"/>
<path style="fill:#A8B1B2;" d="M117.914,284.507c1.6-2.4,2.4-5.6,2.4-8c0-9.6-8-17.6-17.6-17.6c-6.4,0-11.2,3.2-14.4,8
	L117.914,284.507z"/>
<g>
	<circle style="fill:#BCC4C4;" cx="188.314" cy="408.507" r="11.2"/>
	<circle style="fill:#BCC4C4;" cx="157.914" cy="427.707" r="7.2"/>
	<circle style="fill:#BCC4C4;" cx="133.114" cy="394.907" r="13.6"/>
	<circle style="fill:#BCC4C4;" cx="111.514" cy="330.907" r="5.6"/>
	<circle style="fill:#BCC4C4;" cx="147.514" cy="346.907" r="4"/>
	<circle style="fill:#BCC4C4;" cx="142.714" cy="328.507" r="4"/>
</g>
<path style="opacity:0.2;fill:#616F70;enable-background:new    ;" d="M351.514,214.907l-48.8-48.8l48.8-48.8
	c7.2-7.2,10.4-16.8,10.4-25.6c0-9.6-3.2-18.4-10.4-25.6c-14.4-14.4-37.6-14.4-51.2,0l-48.8,48.8l-48.8-48.8
	c-14.4-14.4-37.6-14.4-51.2,0c-14.4,14.4-14.4,37.6,0,51.2l48.8,48.8l-48.8,48.8c-14.4,14.4-14.4,37.6,0,51.2
	c14.4,14.4,37.6,14.4,51.2,0l48.8-48.8l48.8,48.8c7.2,7.2,16.8,10.4,25.6,10.4c9.6,0,18.4-3.2,25.6-10.4
	C365.914,251.707,365.914,228.507,351.514,214.907z"/>
<path style="fill:#EF0770;" d="M351.514,187.707l-48.8-48.8l48.8-48.8c7.2-7.2,10.4-16.8,10.4-25.6c0-9.6-3.2-18.4-10.4-25.6
	c-14.4-14.4-37.6-14.4-51.2,0l-48.8,48.8l-48.8-48.8c-14.4-14.4-37.6-14.4-51.2,0c-14.4,14.4-14.4,37.6,0,51.2l48.8,48.8l-48.8,48.8
	c-14.4,14.4-14.4,37.6,0,51.2c14.4,14.4,37.6,14.4,51.2,0l48.8-48.8l48.8,48.8c7.2,7.2,16.8,10.4,25.6,10.4
	c9.6,0,18.4-3.2,25.6-10.4C365.914,224.507,365.914,201.307,351.514,187.707z"/>
<path style="fill:#C991B0;" d="M313.114,149.307c-6.4,2.4-12.8,4.8-18.4,7.2c-27.2,8-59.2,8-86.4,0c-5.6-3.2-12-5.6-18.4-7.2
	l-38.4,38.4c-14.4,14.4-14.4,37.6,0,51.2c14.4,14.4,37.6,14.4,51.2,0l48.8-48.8l48.8,48.8c7.2,7.2,16.8,10.4,25.6,10.4
	c9.6,0,18.4-3.2,25.6-10.4c14.4-14.4,14.4-37.6,0-51.2L313.114,149.307z"/>
<g>
	<path style="fill:#CCACBF;" d="M151.514,238.907c14.4,14.4,37.6,14.4,51.2,0l40-40c-13.6-0.8-26.4-3.2-37.6-6.4
		c-12.8-6.4-28.8-11.2-45.6-12.8l-8,8C137.114,201.307,137.114,224.507,151.514,238.907z"/>
	<path style="fill:#CCACBF;" d="M343.514,178.907c-16.8,1.6-32,6.4-45.6,12.8c-11.2,3.2-24,5.6-37.6,6.4l40,40
		c7.2,7.2,16.8,10.4,25.6,10.4c9.6,0,18.4-3.2,25.6-10.4c14.4-14.4,14.4-37.6,0-51.2L343.514,178.907z"/>
</g>
<g>
	<path style="fill:#B28DA5;" d="M202.714,238.907l15.2-15.2c-4.8-0.8-8.8-2.4-13.6-3.2c-17.6-8.8-39.2-14.4-63.2-14.4c0,0,0,0-0.8,0
		c-2.4,11.2,0.8,24,9.6,32.8C165.914,253.307,189.114,253.307,202.714,238.907z"/>
	<path style="fill:#B28DA5;" d="M297.914,219.707c-4,1.6-8.8,2.4-13.6,3.2l15.2,15.2c7.2,7.2,16.8,10.4,25.6,10.4
		c9.6,0,18.4-3.2,25.6-10.4c8.8-8.8,12-21.6,9.6-32.8h-0.8C337.114,206.107,315.514,210.907,297.914,219.707z"/>
</g>
</svg>