<svg width="247" height="308" viewBox="0 0 247 308" fill="none" xmlns="http://www.w3.org/2000/svg">
<path d="M86.1462 292.053L78.294 291.265L77.5936 260.603L89.1833 261.765L86.1462 292.053Z" fill="#452F33"/>
<path d="M87.3863 299.865L62.0662 297.327L62.0983 297.007C62.3604 294.393 63.65 291.991 65.6834 290.328C67.7168 288.665 70.3275 287.878 72.9412 288.139L72.9419 288.139L88.4066 289.69L87.3863 299.865Z" fill="#50B8E7"/>
<path d="M121.977 299.601C107.143 299.601 95.0745 275.942 95.0745 246.861C95.0361 238.665 96.0496 230.498 98.0904 222.56C98.3697 221.497 98.6721 220.445 98.9902 219.427C103.909 203.582 112.502 194.121 121.977 194.121C136.81 194.121 148.878 217.78 148.878 246.861C148.878 275.942 136.81 299.601 121.977 299.601ZM121.977 195.408C113.228 195.408 104.891 204.759 100.219 219.811C99.9067 220.81 99.6099 221.843 99.3364 222.884C97.3235 230.715 96.3238 238.772 96.362 246.857C96.362 275.232 107.853 298.314 121.977 298.314C136.1 298.314 147.591 275.232 147.591 246.861C147.591 218.489 136.1 195.408 121.977 195.408Z" fill="#020303"/>
<path d="M87.9062 300.558L58.2226 297.526L58.3411 296.693L88.0246 299.726L87.9062 300.558Z" fill="#020303"/>
<path d="M128.489 278.112C122.852 278.112 118.602 264.676 118.602 246.861C118.602 229.045 122.852 215.61 128.489 215.61C134.125 215.61 138.375 229.045 138.375 246.861C138.375 264.676 134.125 278.112 128.489 278.112ZM128.489 216.898C124.353 216.898 119.889 228.354 119.889 246.861C119.889 265.368 124.353 276.824 128.489 276.824C132.624 276.824 137.088 265.368 137.088 246.861C137.088 228.354 132.624 216.898 128.489 216.898Z" fill="#020303"/>
<path d="M129.539 253.891C131.511 253.891 133.11 250.743 133.11 246.861C133.11 242.978 131.511 239.831 129.539 239.831C127.567 239.831 125.968 242.978 125.968 246.861C125.968 250.743 127.567 253.891 129.539 253.891Z" fill="#EDF7FC"/>
<path d="M183.736 300.252C168.439 300.252 155.994 276.216 155.994 246.672C155.957 238.51 156.958 230.377 158.971 222.468C159.275 221.311 159.596 220.19 159.926 219.133C164.981 202.827 173.882 193.091 183.736 193.091C199.033 193.091 211.478 217.127 211.478 246.672C211.478 276.216 199.033 300.252 183.736 300.252ZM183.736 194.379C174.615 194.379 165.962 204.011 161.155 219.516C160.83 220.555 160.515 221.657 160.218 222.791C158.232 230.594 157.245 238.617 157.281 246.668C157.281 275.506 169.149 298.964 183.736 298.964C198.323 298.964 210.191 275.506 210.191 246.672C210.191 217.837 198.323 194.379 183.736 194.379Z" fill="#020303"/>
<path d="M190.248 277.922C184.611 277.922 180.361 264.487 180.361 246.671C180.361 228.856 184.611 215.421 190.248 215.421C195.884 215.421 200.134 228.856 200.134 246.671C200.134 264.487 195.884 277.922 190.248 277.922ZM190.248 216.709C186.112 216.709 181.649 228.164 181.649 246.671C181.649 265.179 186.112 276.634 190.248 276.634C194.383 276.634 198.847 265.179 198.847 246.671C198.847 228.164 194.383 216.709 190.248 216.709Z" fill="#020303"/>
<path d="M191.298 253.701C193.27 253.701 194.869 250.554 194.869 246.671C194.869 242.789 193.27 239.642 191.298 239.642C189.326 239.642 187.727 242.789 187.727 246.671C187.727 250.554 189.326 253.701 191.298 253.701Z" fill="#EDF7FC"/>
<path d="M245.904 300.515H0.643728C0.473 300.515 0.309275 300.447 0.188553 300.327C0.0678304 300.206 0 300.042 0 299.872C0 299.701 0.0678304 299.537 0.188553 299.416C0.309275 299.296 0.473 299.228 0.643728 299.228H245.904C246.075 299.228 246.238 299.296 246.359 299.416C246.48 299.537 246.548 299.701 246.548 299.872C246.548 300.042 246.48 300.206 246.359 300.327C246.238 300.447 246.075 300.515 245.904 300.515Z" fill="#EDF7FC"/>
<path d="M89.8878 52.9662C89.5479 53.8494 89.4056 54.7963 89.4712 55.7404C89.5368 56.6844 89.8085 57.6026 90.2674 58.4303C90.7262 59.258 91.3609 59.975 92.1268 60.5308C92.8927 61.0866 93.7712 61.4678 94.7003 61.6474L97.9797 84.4159L106.919 76.4796L102.434 56.075C102.633 54.4941 102.244 52.8954 101.342 51.5818C100.441 50.2682 99.0884 49.3311 97.5419 48.9479C95.9954 48.5647 94.362 48.7621 92.9513 49.5027C91.5407 50.2433 90.4506 51.4756 89.8878 52.9662Z" fill="#452F33"/>
<path d="M121.766 142.479L179.325 142.269V164.944L121.766 167.267V142.479Z" fill="#020303"/>
<path d="M108.648 298.092L100.837 296.965L101.468 266.299L112.996 267.963L108.648 298.092Z" fill="#452F33"/>
<path d="M109.548 305.951L84.3616 302.316L84.4076 301.998C84.7829 299.398 86.1754 297.053 88.2791 295.48C90.3827 293.907 93.0251 293.234 95.6251 293.609L111.009 295.829L109.548 305.951Z" fill="#50B8E7"/>
<path d="M72.6099 219.386L71.7718 219.34L74.3139 173.149H126.388V173.989H75.1095L72.6099 219.386Z" fill="#020303"/>
<path d="M78.1081 300.375L77.9683 301.204L113.301 307.163L113.441 306.334L78.1081 300.375Z" fill="#020303"/>
<path d="M161.364 219.43C161.049 220.443 160.752 221.476 160.473 222.531L159.595 222.627L132.27 225.665L69.6701 219.363L134.791 216.002L160.54 219.325L161.364 219.43Z" fill="#020303"/>
<path d="M147.049 63.6956C147.049 63.6956 137.95 60.7944 132.101 72.3993C126.251 84.0042 117.152 96.7697 117.152 96.7697L122.351 97.9301C122.351 97.9301 123.651 89.8067 126.901 88.6462L125.601 99.0906C125.601 99.0906 164.598 111.276 182.147 97.9301L181.497 93.8684C181.497 93.8684 184.097 94.4487 184.097 97.9301L186.047 96.1894C186.047 96.1894 184.097 92.708 178.247 88.066C174.408 85.0192 173.088 79.2227 172.635 75.5987C172.266 72.5099 170.9 69.6256 168.744 67.3828C164.857 63.3608 157.774 59.0859 147.049 63.6956Z" fill="#50B8E7"/>
<path d="M113.91 190.284L112.641 194.806C112.641 194.806 87.0615 188.602 83.7291 204.644C80.3968 220.687 75.8267 270.339 75.8267 270.339L88.7433 272.989L101.01 218.862L150.693 208.024L147.44 179.985L113.91 190.284Z" fill="#50B8E7"/>
<path d="M135.421 197.726C135.421 197.726 100.97 190.584 98.4491 207.809C95.9283 225.035 99.7095 257.805 100.13 258.645C100.55 259.486 98.4491 275.03 98.4491 275.03L113.574 277.131C113.574 277.131 123.237 231.337 119.036 219.573L147.462 217.815C157.274 217.208 165.29 209.456 165.854 199.641C166.07 195.884 165.13 192.475 161.889 190.584C151.806 184.702 133.32 184.702 133.32 184.702L135.421 197.726Z" fill="#50B8E7"/>
<path d="M151.806 105.609C160.159 105.609 166.931 98.8375 166.931 90.4844C166.931 82.1312 160.159 75.3596 151.806 75.3596C143.453 75.3596 136.681 82.1312 136.681 90.4844C136.681 98.8375 143.453 105.609 151.806 105.609Z" fill="#7A464E"/>
<path d="M137.521 114.486L127.858 113.28L120.754 130.052C120.754 130.052 110.843 191.634 113.364 192.475C114.778 192.974 116.278 193.188 117.775 193.105L165.471 195.588C165.471 195.588 167.599 185.993 166.758 178.851C165.918 171.708 175.753 132.606 175.753 132.606L173.863 114.75L165.815 114.602L160.021 110.096L143.898 110.046L137.521 114.486Z" fill="#E4E4E4"/>
<path d="M128.278 115.38L127.858 112.86L116.094 98.5753L104.017 58.5979L92.4303 70.8287L104.751 109.918L121.556 131.346L128.278 115.38Z" fill="#E4E4E4"/>
<path d="M131.936 92.2932C131.936 92.2932 137.136 85.1437 141.685 83.8438C146.235 82.5439 146.885 76.0443 146.885 76.0443C146.885 76.0443 158.584 89.0434 165.733 89.6933C172.883 90.3433 166.383 74.0945 166.383 74.0945L153.384 70.8447L141.035 72.1446L131.286 78.6442L131.936 92.2932Z" fill="#50B8E7"/>
<path d="M180.586 194.59L180.179 177.35H141.081L139.832 223.576L138.992 223.553L140.263 176.51H180.991L181.005 176.916L181.425 194.561L180.586 194.59Z" fill="#020303"/>
<path d="M179.745 171.048H178.904V138.979L192.466 142.916L192.231 143.722L179.745 140.098V171.048Z" fill="#020303"/>
<path d="M185.627 138.278L194.449 141.639L192.769 146.26L185.627 143.319V138.278Z" fill="#020303"/>
<path d="M150.756 174.409V181.131H175.787V174.856L150.756 174.409Z" fill="#020303"/>
<path d="M86.4752 171.048V177.77H111.507V171.494L86.4752 171.048Z" fill="#020303"/>
<path d="M132.27 154.737H132.066V149.143C132.066 148.284 131.724 147.46 131.117 146.853C130.51 146.246 129.686 145.905 128.828 145.905H116.975C116.116 145.905 115.293 146.246 114.685 146.853C114.078 147.46 113.737 148.284 113.737 149.143V179.834C113.737 180.693 114.078 181.517 114.685 182.124C115.293 182.731 116.116 183.072 116.975 183.072H128.828C129.686 183.072 130.51 182.731 131.117 182.124C131.724 181.517 132.066 180.693 132.066 179.834V158.719H132.27L132.27 154.737Z" fill="#020303"/>
<path d="M123.003 157.422C124.099 157.422 124.987 156.534 124.987 155.439C124.987 154.344 124.099 153.456 123.003 153.456C121.908 153.456 121.02 154.344 121.02 155.439C121.02 156.534 121.908 157.422 123.003 157.422Z" fill="#EDF7FC"/>
<path opacity="0.15" d="M170.502 135.757L169.241 159.704L150.756 163.486L167.561 156.763L170.502 135.757Z" fill="black"/>
<path d="M94.8891 50.6659V0H242.946V37.4679H108.087L94.8891 50.6659Z" fill="#EDF7FC"/>
<path d="M94.8891 50.6659V0H242.946V37.4679H108.087L94.8891 50.6659ZM96.1765 1.28746V47.5579L107.554 36.1805H241.659V1.28744L96.1765 1.28746Z" fill="#020303"/>
<path d="M210.846 9.42847H128.277V16.1232H210.846V9.42847Z" fill="#50B8E7"/>
<path d="M210.846 19.4705H128.277V26.1652H210.846V19.4705Z" fill="#50B8E7"/>
<path d="M126.756 178.007C127.588 178.457 128.509 178.72 129.454 178.775C130.398 178.831 131.344 178.679 132.223 178.33C133.103 177.98 133.895 177.443 134.544 176.754C135.194 176.066 135.684 175.243 135.981 174.344L158.982 174.003L152.254 164.123L131.443 165.961C129.901 165.563 128.265 165.744 126.847 166.47C125.429 167.196 124.327 168.418 123.749 169.902C123.171 171.387 123.158 173.032 123.712 174.526C124.266 176.02 125.349 177.259 126.756 178.007Z" fill="#452F33"/>
<path d="M169.241 117.691L173.023 114.75C173.023 114.75 179.325 111.389 180.585 123.153C181.845 134.916 191.088 173.989 181.845 174.409C172.602 174.829 138.135 175.756 138.135 175.756L136.847 164.169L170.922 160.965L169.241 117.691Z" fill="#E4E4E4"/>
</svg>
