<svg width="327" height="217" viewBox="0 0 327 217" fill="none" xmlns="http://www.w3.org/2000/svg">
<g clip-path="url(#clip0_3_319)">
<path d="M117.295 124.886C128.501 105.201 149.878 90.0863 172.506 91.5423C155.815 109.667 146.082 133.104 145.029 157.705C144.657 167.194 145.233 177.787 138.924 184.892C134.998 189.313 128.997 191.454 123.097 191.904C117.197 192.353 111.298 191.288 105.476 190.228L104.064 190.661C103.526 168.024 106.089 144.57 117.295 124.886Z" fill="#F0F0F0"/>
<path d="M172.54 92.0161C155.806 100.06 141.538 113.494 132.779 129.878C130.885 133.42 129.273 137.178 128.57 141.152C127.866 145.127 128.358 148.91 129.717 152.686C130.96 156.137 132.632 159.524 133.013 163.217C133.415 167.11 131.981 170.75 129.399 173.638C126.24 177.173 121.997 179.363 117.774 181.361C113.084 183.579 108.179 185.809 104.857 189.949C104.455 190.451 103.699 189.798 104.101 189.297C109.879 182.094 119.771 180.74 126.63 174.938C129.83 172.23 132.233 168.543 132.082 164.223C131.949 160.445 130.228 156.951 128.939 153.468C127.586 149.809 126.911 146.131 127.396 142.231C127.893 138.242 129.361 134.413 131.156 130.838C135.203 122.775 140.742 115.374 147.088 108.975C154.38 101.62 162.879 95.565 172.216 91.0718C172.794 90.7939 173.114 91.7401 172.54 92.0161Z" fill="white"/>
<path d="M135.345 124.403C132.779 122.53 130.964 119.807 130.224 116.721C129.483 113.635 129.865 110.387 131.302 107.556C131.594 106.985 132.498 107.412 132.205 107.984C130.862 110.618 130.507 113.644 131.202 116.516C131.898 119.388 133.599 121.917 135.998 123.647C136.519 124.024 135.863 124.777 135.345 124.403Z" fill="white"/>
<path d="M128.856 151.019C135.284 150.081 141.122 146.758 145.206 141.713C145.61 141.213 146.366 141.866 145.962 142.365C141.703 147.607 135.621 151.053 128.929 152.014C128.292 152.105 128.222 151.109 128.856 151.019Z" fill="white"/>
<path d="M154.874 102.848C155.715 103.779 156.775 104.487 157.958 104.908C159.141 105.33 160.411 105.451 161.652 105.261C162.289 105.162 162.358 106.158 161.725 106.256C160.353 106.46 158.951 106.324 157.643 105.862C156.335 105.399 155.16 104.624 154.221 103.603C154.124 103.515 154.065 103.393 154.056 103.262C154.046 103.131 154.087 103.002 154.169 102.9C154.256 102.8 154.379 102.739 154.511 102.729C154.643 102.719 154.773 102.762 154.874 102.848Z" fill="white"/>
<path d="M217.53 153.64C217.135 153.713 216.739 153.787 216.34 153.868C211.027 154.88 205.804 156.321 200.725 158.178C200.33 158.315 199.931 158.46 199.541 158.609C187.351 163.212 176.123 170.035 166.427 178.731C162.572 182.195 158.986 185.947 155.701 189.955C151.165 195.489 146.687 201.85 140.76 205.459C140.145 205.842 139.508 206.187 138.851 206.492L104.702 192.348C104.641 192.277 104.576 192.213 104.514 192.142L103.125 191.64C103.28 191.421 103.445 191.198 103.6 190.979C103.689 190.852 103.786 190.728 103.876 190.601C103.938 190.517 104 190.434 104.051 190.355C104.072 190.327 104.093 190.299 104.11 190.279C104.161 190.2 104.217 190.132 104.265 190.06C105.186 188.81 106.118 187.563 107.06 186.321C107.063 186.313 107.063 186.313 107.074 186.309C114.276 176.863 122.331 167.935 131.487 160.512C131.762 160.289 132.041 160.058 132.332 159.841C136.478 156.518 140.888 153.538 145.52 150.933C148.061 149.514 150.672 148.225 153.343 147.07C160.252 144.099 167.585 142.231 175.074 141.536C190.004 140.151 205.212 143.55 216.663 152.916C216.955 153.156 217.241 153.393 217.53 153.64Z" fill="#F0F0F0"/>
<path d="M217.274 154.041C199.063 150.404 179.57 152.552 162.698 160.368C159.051 162.057 155.498 164.089 152.54 166.838C149.582 169.589 147.693 172.906 146.502 176.738C145.414 180.241 144.706 183.95 142.784 187.128C140.758 190.477 137.418 192.521 133.614 193.275C128.961 194.198 124.253 193.396 119.676 192.453C114.595 191.404 109.333 190.236 104.185 191.544C103.562 191.703 103.352 190.727 103.974 190.569C112.931 188.292 121.645 193.157 130.62 192.648C134.808 192.411 138.95 190.911 141.434 187.371C143.605 184.275 144.338 180.45 145.409 176.894C146.535 173.16 148.213 169.817 150.952 166.995C153.754 164.108 157.235 161.934 160.824 160.158C168.917 156.154 177.802 153.574 186.726 152.28C196.984 150.792 207.42 151.067 217.585 153.093C218.214 153.218 217.899 154.166 217.274 154.041Z" fill="white"/>
<path d="M168.048 157.538C167.129 154.5 167.322 151.235 168.591 148.326C169.86 145.417 172.124 143.053 174.978 141.657C175.556 141.376 176.02 142.26 175.441 142.541C172.781 143.837 170.673 146.039 169.496 148.75C168.32 151.462 168.153 154.504 169.025 157.328C169.214 157.942 168.236 158.149 168.048 157.538Z" fill="white"/>
<path d="M146.82 174.889C152.518 178.005 159.182 178.861 165.485 177.288C166.109 177.132 166.319 178.107 165.696 178.264C159.134 179.888 152.2 178.983 146.278 175.728C145.714 175.417 146.259 174.58 146.82 174.889Z" fill="white"/>
<path d="M196.638 152.069C196.748 153.318 197.167 154.521 197.858 155.568C198.548 156.616 199.489 157.476 200.595 158.071C201.163 158.374 200.617 159.211 200.053 158.909C198.834 158.246 197.797 157.296 197.031 156.14C196.266 154.984 195.795 153.659 195.661 152.28C195.637 152.151 195.664 152.018 195.735 151.907C195.806 151.797 195.916 151.718 196.044 151.687C196.173 151.659 196.308 151.684 196.419 151.756C196.531 151.827 196.609 151.94 196.638 152.069Z" fill="white"/>
<path d="M152.479 176.975C147.697 153.884 141.719 146.186 141.719 146.186L139.435 144.418L136.689 142.287L136.702 142.013L136.051 141.792L135.898 141.674L135.647 141.481L135.607 141.525L135.521 141.613L123.094 137.394L107.327 132.047L100.026 122.57C98.8366 121.027 97.3057 119.78 95.553 118.926C93.8004 118.072 91.8735 117.636 89.9236 117.65L66.6064 117.822C63.4536 117.846 60.4236 119.046 58.1121 121.187L42.786 135.382L18.9051 146.771L18.8648 146.731L18.6141 146.91L14.9242 148.671L15.0765 149.463L12.7927 151.108C12.7927 151.108 6.81469 158.272 2.03224 179.757C0.815634 185.224 0.216778 196.951 0.0006227 211.402C-0.0102347 212.133 0.124555 212.859 0.397152 213.538C0.669749 214.216 1.07472 214.834 1.58851 215.355C2.1023 215.876 2.71466 216.289 3.38999 216.572C4.06531 216.854 4.79013 217 5.5223 217H133.075L148.995 217C149.727 217 150.451 216.854 151.126 216.572C151.801 216.29 152.413 215.877 152.927 215.356C153.44 214.836 153.845 214.219 154.118 213.541C154.391 212.864 154.527 212.138 154.517 211.408C154.306 195.683 153.707 182.904 152.479 176.975Z" fill="#50B8E7"/>
<path d="M168.845 20.1367C163.882 20.1367 159.123 22.1052 155.614 25.6092C152.105 29.1132 150.134 33.8656 150.134 38.821C150.134 43.7763 152.105 48.5287 155.614 52.0327C159.123 55.5367 163.882 57.5052 168.845 57.5052H308.289C313.251 57.5052 318.011 55.5367 321.52 52.0327C325.029 48.5287 327 43.7763 327 38.821C327 33.8656 325.029 29.1132 321.52 25.6092C318.011 22.1052 313.251 20.1367 308.289 20.1367H168.845Z" fill="#DCF0FA"/>
<path d="M168.845 23.9182C164.887 23.9182 161.091 25.4883 158.292 28.2832C155.493 31.078 153.921 34.8686 153.921 38.8211C153.921 42.7736 155.493 46.5642 158.292 49.3591C161.091 52.1539 164.887 53.724 168.845 53.724H308.289C312.247 53.724 316.043 52.1539 318.842 49.3591C321.641 46.5642 323.213 42.7736 323.213 38.8211C323.213 34.8686 321.641 31.078 318.842 28.2832C316.043 25.4883 312.247 23.9182 308.289 23.9182H168.845Z" fill="white"/>
<path d="M81.9267 108.903C98.7978 108.903 112.474 95.246 112.474 78.3994C112.474 61.5527 98.7978 47.8958 81.9267 47.8958C65.0556 47.8958 51.3789 61.5527 51.3789 78.3994C51.3789 95.246 65.0556 108.903 81.9267 108.903Z" fill="#9E616A"/>
<path d="M74.112 107.409C73.9815 107.122 73.8513 106.835 73.7216 106.546C73.7716 106.547 73.8211 106.554 73.8711 106.556L74.112 107.409Z" fill="#50B8E7"/>
<path d="M50.5294 49.2828C52.0744 48.0521 53.8802 46.9197 55.8556 46.9834C57.8309 47.0469 59.834 48.8285 59.4248 50.7592C63.0531 44.3443 68.8283 39.4104 75.7366 36.8237C82.645 34.237 90.245 34.1628 97.2028 36.614C102.112 38.3436 106.927 41.8039 108.055 46.8791C108.344 48.1819 108.406 49.6104 109.221 50.6683C110.248 52.0022 112.213 52.3039 113.831 51.8347C113.848 51.83 113.864 51.8252 113.88 51.8204C114.153 51.7272 114.448 51.718 114.727 51.7941C115.006 51.8702 115.255 52.028 115.443 52.2471C115.631 52.4663 115.748 52.7366 115.781 53.0233C115.813 53.3099 115.758 53.5996 115.624 53.8549L114.235 56.442C115.986 56.8317 117.805 56.7931 119.538 56.3293C119.826 56.2539 120.13 56.2693 120.409 56.3734C120.688 56.4775 120.928 56.6651 121.095 56.9106C121.263 57.156 121.351 57.4473 121.346 57.7445C121.342 58.0416 121.245 58.3301 121.07 58.5703C116.489 64.85 108.837 68.9052 101.027 68.8575C95.4768 68.8237 89.8693 66.9136 84.4675 68.1881C82.3778 68.6812 80.4251 69.6351 78.7527 70.9801C77.0804 72.325 75.7308 74.0267 74.803 75.9604C73.8752 77.8941 73.3927 80.0107 73.3909 82.1549C73.3891 84.299 73.8681 86.4164 74.7927 88.3516C73.1332 86.5392 69.9254 86.9683 68.2278 88.7453C66.5304 90.5224 66.091 93.1748 66.262 95.6247C66.5236 99.3717 67.9938 102.902 69.5437 106.339C56.549 105.93 44.2582 96.8279 40.1211 84.5167C35.9666 72.1539 40.3206 57.4149 50.5294 49.2828Z" fill="#50B8E7"/>
<path opacity="0.2" d="M30.0669 170.004L38.6349 216.553L43.7759 217L30.0669 170.004Z" fill="black"/>
<path opacity="0.2" d="M124.445 166.493L115.877 216.519L110.736 217L124.445 166.493Z" fill="black"/>
<path d="M57.8372 33.6168C56.1944 34.3018 54.4802 33.5511 53.7613 31.8319C53.0315 30.0865 53.7132 28.3147 55.3823 27.6187C57.0515 26.9227 58.7352 27.6752 59.4768 29.4488C60.2074 31.1958 59.5331 32.9097 57.8372 33.6168ZM54.6903 24.1831L53.3841 24.7278C53.0578 24.8622 52.6928 24.8695 52.3614 24.7481C52.03 24.6267 51.7563 24.3856 51.5944 24.0723L51.5298 23.9461C50.1244 21.4151 49.9635 18.339 51.0541 14.8081C52.0644 11.6406 52.484 9.41301 51.6401 7.39489C50.6644 5.06157 48.5809 4.33065 45.9239 5.38947C44.8934 5.81914 44.5655 5.8123 43.7545 6.61561C43.5781 6.79247 43.3678 6.93206 43.1363 7.02603C42.9047 7.12 42.6565 7.16645 42.4065 7.16259C42.1649 7.15975 41.9263 7.10835 41.705 7.01145C41.4837 6.91455 41.2842 6.77414 41.1184 6.5986C40.799 6.2603 40.62 5.81357 40.6177 5.34863C40.6153 4.88368 40.7898 4.43517 41.1058 4.09367C42.4688 2.66885 44.1129 1.54164 45.9342 0.783169C51.6429 -1.59714 54.5167 1.91704 55.8317 5.06191C57.118 8.13795 56.3945 10.992 55.2319 14.6883C54.2576 17.7596 54.3143 20.0355 55.4211 22.2984C55.501 22.4695 55.5454 22.6549 55.5518 22.8436C55.5581 23.0322 55.5262 23.2202 55.4579 23.3963C55.3897 23.5723 55.2865 23.7327 55.1546 23.868C55.0227 24.0032 54.8647 24.1104 54.6903 24.1831Z" fill="#FF0000"/>
<path d="M199.646 47.7321H171.902C171.814 47.7327 171.727 47.7158 171.645 47.6826C171.563 47.6493 171.489 47.6003 171.427 47.5382C171.364 47.4762 171.315 47.4024 171.281 47.3212C171.247 47.2399 171.229 47.1528 171.229 47.0648C171.229 46.9768 171.247 46.8896 171.281 46.8084C171.315 46.7271 171.364 46.6533 171.427 46.5913C171.489 46.5293 171.563 46.4802 171.645 46.447C171.727 46.4137 171.814 46.3969 171.902 46.3975H199.646C199.823 46.3987 199.992 46.4695 200.116 46.5945C200.24 46.7195 200.31 46.8886 200.31 47.0648C200.31 47.241 200.24 47.41 200.116 47.535C199.992 47.66 199.823 47.7309 199.646 47.7321Z" fill="#FF0000"/>
<path d="M234.841 47.9545H207.097C207.009 47.9551 206.922 47.9383 206.84 47.905C206.759 47.8717 206.684 47.8227 206.622 47.7606C206.559 47.6986 206.51 47.6249 206.476 47.5436C206.442 47.4623 206.424 47.3752 206.424 47.2872C206.424 47.1992 206.442 47.112 206.476 47.0308C206.51 46.9495 206.559 46.8757 206.622 46.8137C206.684 46.7517 206.759 46.7026 206.84 46.6694C206.922 46.6361 207.009 46.6193 207.097 46.6199H234.841C234.93 46.6193 235.017 46.6361 235.099 46.6694C235.18 46.7026 235.254 46.7517 235.317 46.8137C235.379 46.8757 235.429 46.9495 235.463 47.0308C235.497 47.112 235.514 47.1992 235.514 47.2872C235.514 47.3752 235.497 47.4623 235.463 47.5436C235.429 47.6249 235.379 47.6986 235.317 47.7606C235.254 47.8227 235.18 47.8717 235.099 47.905C235.017 47.9383 234.93 47.9551 234.841 47.9545Z" fill="#FF0000"/>
<path d="M270.036 48.1769H242.292C242.116 48.1757 241.947 48.1049 241.823 47.9798C241.698 47.8548 241.629 47.6858 241.629 47.5096C241.629 47.3334 241.698 47.1643 241.823 47.0393C241.947 46.9143 242.116 46.8435 242.292 46.8423H270.036C270.125 46.8417 270.212 46.8585 270.294 46.8918C270.375 46.9251 270.449 46.9741 270.512 47.0361C270.574 47.0982 270.624 47.1719 270.658 47.2532C270.692 47.3344 270.709 47.4216 270.709 47.5096C270.709 47.5976 270.692 47.6848 270.658 47.766C270.624 47.8473 270.574 47.921 270.512 47.9831C270.449 48.0451 270.375 48.0941 270.294 48.1274C270.212 48.1607 270.125 48.1775 270.036 48.1769Z" fill="#FF0000"/>
<path d="M305.231 48.3993H277.487C277.311 48.3981 277.142 48.3273 277.018 48.2022C276.893 48.0772 276.824 47.9082 276.824 47.732C276.824 47.5558 276.893 47.3867 277.018 47.2617C277.142 47.1367 277.311 47.0659 277.487 47.0647H305.231C305.408 47.0659 305.577 47.1367 305.701 47.2617C305.825 47.3867 305.895 47.5558 305.895 47.732C305.895 47.9082 305.825 48.0772 305.701 48.2022C305.577 48.3273 305.408 48.3981 305.231 48.3993Z" fill="#FF0000"/>
<path d="M185.713 41.591C188.561 41.591 190.87 39.2857 190.87 36.442C190.87 33.5983 188.561 31.293 185.713 31.293C182.865 31.293 180.557 33.5983 180.557 36.442C180.557 39.2857 182.865 41.591 185.713 41.591Z" fill="#FF0000"/>
<path d="M221.121 41.591C223.969 41.591 226.277 39.2857 226.277 36.442C226.277 33.5983 223.969 31.293 221.121 31.293C218.273 31.293 215.964 33.5983 215.964 36.442C215.964 39.2857 218.273 41.591 221.121 41.591Z" fill="#FF0000"/>
<path d="M256.528 41.591C259.376 41.591 261.685 39.2857 261.685 36.442C261.685 33.5983 259.376 31.293 256.528 31.293C253.681 31.293 251.372 33.5983 251.372 36.442C251.372 39.2857 253.681 41.591 256.528 41.591Z" fill="#FF0000"/>
<path d="M291.936 41.591C294.784 41.591 297.093 39.2857 297.093 36.442C297.093 33.5983 294.784 31.293 291.936 31.293C289.088 31.293 286.78 33.5983 286.78 36.442C286.78 39.2857 289.088 41.591 291.936 41.591Z" fill="#FF0000"/>
</g>
<defs>
<clipPath id="clip0_3_319">
<rect width="327" height="217" fill="white"/>
</clipPath>
</defs>
</svg>
