<?xml version="1.0" encoding="iso-8859-1"?>
<!-- Uploaded to: SVG Repo, www.svgrepo.com, Generator: SVG Repo Mixer Tools -->
<svg fill="#000000" height="800px" width="800px" version="1.1" id="Layer_1" xmlns="http://www.w3.org/2000/svg" xmlns:xlink="http://www.w3.org/1999/xlink" 
	 viewBox="0 0 490.667 490.667" xml:space="preserve">
<g>
	<g>
		<g>
			<path d="M207.339,253.355c3.392,3.371,9.344,3.392,12.757,0c3.413-3.392,3.477-8.96,0.128-12.437l-44.011-43.755
				c-4.16-4.139-4.203-10.859-0.064-15.061c4.075-4.181,10.795-4.245,15.019-0.149l57.856,57.536c3.435,3.413,9.365,3.392,12.757,0
				c3.349-3.328,3.52-8.619,0.405-12.139l-56.085-55.851c-4.117-4.181-4.075-10.901,0.085-15.04s10.901-4.139,15.04,0l69.504,69.184
				c3.413,3.392,9.344,3.413,12.779,0c1.685-1.685,2.624-3.904,2.624-6.272c0-2.368-0.939-4.608-2.624-6.272l-66.496-66.069
				c-2.005-2.005-3.136-4.715-3.157-7.531c0-2.837,1.109-5.547,3.093-7.552c2.005-2.005,4.736-3.157,7.552-3.157
				c2.027,0.661,5.568,1.067,7.573,3.093l52.565,52.267c3.413,3.392,9.365,3.392,12.779,0c1.685-1.664,2.581-3.883,2.581-6.272
				c0-2.368-0.917-4.587-2.624-6.272L206.166,60.907c-2.987-2.965-3.947-7.403-2.453-11.328c1.493-3.925,5.12-6.635,9.323-6.891
				l56.811-3.563c12.48-0.021,22.912-7.381,27.2-17.771l-111.787,0.448c-46.251,0-99.925,37.952-99.925,86.891
				c0,21.291,23.168,45.504,38.507,61.547L207.339,253.355z"/>
			<path d="M481.174,64.043c-5.76-0.555-11.115,3.584-11.776,9.429l-19.691,177.045c-1.003,1.621-1.707,3.413-1.707,5.461
				c0,10.069-18.24,21.333-42.667,21.333c-24.427,0-42.667-11.264-42.667-21.333c0-5.888-4.779-10.667-10.667-10.667
				s-10.667,4.779-10.667,10.667c0,10.069-18.24,21.333-42.667,21.333c-3.605,0-7.04-0.32-10.411-0.768
				c-18.987-2.624-32.256-11.989-32.256-20.565c0-5.888-4.779-10.667-10.667-10.667s-10.667,4.779-10.667,10.667
				c0,10.069-18.24,21.333-42.667,21.333c-10.837,0-20.331-2.283-27.669-5.632c-0.021,0-0.021-0.021-0.043-0.021
				c-3.904-1.771-7.168-3.883-9.643-6.144c-0.043-0.021-0.064-0.064-0.107-0.085c-1.173-1.088-2.155-2.219-2.944-3.371
				c-0.043-0.064-0.085-0.149-0.149-0.213c-0.725-1.109-1.28-2.261-1.6-3.392c-0.192-0.832-0.512-1.664-0.512-2.475
				c0-5.888-4.779-10.667-10.667-10.667s-10.667,4.779-10.667,10.667c0,0.469-0.235,0.96-0.32,1.451
				c-0.021,0.085-0.085,0.128-0.107,0.213c-0.683,3.477-3.392,7.061-7.68,10.197c-0.469,0.341-1.024,0.661-1.536,0.981
				c-1.003,0.64-2.005,1.301-3.136,1.899c-1.365,0.704-2.837,1.344-4.373,1.963c-0.512,0.213-0.96,0.448-1.493,0.64
				c-2.155,0.789-4.459,1.493-6.912,2.069c-0.064,0.021-0.107,0.021-0.149,0.043c-2.539,0.597-5.227,1.067-8.043,1.408
				c-0.021,0-0.043,0-0.064,0.021c-2.859,0.277-5.803,0.448-8.853,0.448c-24.427,0-42.667-11.264-42.667-21.333
				c0-2.048-0.725-3.883-1.749-5.525L21.27,73.472c-0.64-5.867-5.952-10.005-11.776-9.429c-5.888,0.661-10.069,5.931-9.429,11.776
				L20.673,261.27c0,0.043-0.021,0.085,0,0.149l17.813,160.448c3.051,27.051,25.856,47.445,53.056,47.445h307.627
				c27.2,0,50.005-20.395,53.013-47.445l17.813-160.448v-0.021l20.608-185.579C491.243,69.974,487.019,64.704,481.174,64.043z"/>
		</g>
	</g>
</g>
</svg>