<svg width="290" height="81" viewBox="0 0 290 81" fill="none" xmlns="http://www.w3.org/2000/svg">
<path d="M42.504 60.584C42.504 61.8 42.056 62.856 41.16 63.752C40.328 64.584 39.336 65 38.184 65H5.16C4.008 65 2.984 64.584 2.088 63.752C1.256 62.856 0.84 61.8 0.84 60.584V4.51999C0.84 3.24 1.256 2.184 2.088 1.352C2.984 0.519995 4.008 0.103994 5.16 0.103994H7.848C9.064 0.103994 10.088 0.519995 10.92 1.352C11.816 2.184 12.264 3.24 12.264 4.51999V52.424C12.264 53.256 12.648 53.672 13.416 53.672H38.184C39.336 53.672 40.328 54.088 41.16 54.92C42.056 55.752 42.504 56.808 42.504 58.088V60.584ZM84.9045 54.248C84.9045 57.256 83.8485 59.816 81.7365 61.928C79.6885 63.976 77.1925 65 74.2485 65H60.9045C57.9605 65 55.4325 63.976 53.3205 61.928C51.2085 59.816 50.1525 57.256 50.1525 54.248V43.784C50.1525 41.8 50.6325 40.04 51.5925 38.504C52.6165 36.904 53.9285 35.624 55.5285 34.664C57.1285 33.704 58.9205 33.224 60.9045 33.224H72.2325C72.5525 33.224 72.8405 33.096 73.0965 32.84C73.4165 32.584 73.5765 32.264 73.5765 31.88V28.04C73.5765 27.656 73.4165 27.336 73.0965 27.08C72.8405 26.824 72.5525 26.696 72.2325 26.696H60.9045C59.6885 26.696 58.6325 26.28 57.7365 25.448C56.9045 24.616 56.4885 23.592 56.4885 22.376V19.784C56.4885 18.504 56.9045 17.448 57.7365 16.616C58.6325 15.72 59.6885 15.272 60.9045 15.272H74.2485C76.2325 15.272 78.0245 15.752 79.6245 16.712C81.2245 17.672 82.5045 18.984 83.4645 20.648C84.4245 22.248 84.9045 24.04 84.9045 26.024V54.248ZM73.5765 52.424V45.8C73.5765 45.48 73.4165 45.192 73.0965 44.936C72.8405 44.68 72.5525 44.552 72.2325 44.552H62.9205C62.6005 44.552 62.2805 44.68 61.9605 44.936C61.7045 45.192 61.5765 45.48 61.5765 45.8V52.424C61.5765 52.744 61.7045 53.032 61.9605 53.288C62.2805 53.544 62.6005 53.672 62.9205 53.672H72.2325C72.5525 53.672 72.8405 53.544 73.0965 53.288C73.4165 53.032 73.5765 52.744 73.5765 52.424ZM127.467 54.248C127.467 57.256 126.411 59.816 124.299 61.928C122.251 63.976 119.755 65 116.811 65H103.467C100.523 65 97.995 63.976 95.883 61.928C93.771 59.816 92.715 57.256 92.715 54.248V19.784C92.715 18.504 93.131 17.448 93.963 16.616C94.859 15.72 95.915 15.272 97.131 15.272H99.819C101.035 15.272 102.059 15.72 102.891 16.616C103.723 17.448 104.139 18.504 104.139 19.784V52.424C104.139 52.744 104.267 53.032 104.523 53.288C104.843 53.544 105.163 53.672 105.483 53.672H114.795C115.115 53.672 115.403 53.544 115.659 53.288C115.979 53.032 116.139 52.744 116.139 52.424V19.784C116.139 18.504 116.555 17.448 117.387 16.616C118.219 15.72 119.243 15.272 120.459 15.272H123.147C124.363 15.272 125.387 15.72 126.219 16.616C127.051 17.448 127.467 18.504 127.467 19.784V54.248ZM170.03 60.584C170.03 61.8 169.614 62.856 168.782 63.752C167.95 64.584 166.926 65 165.71 65H163.022C161.806 65 160.782 64.584 159.95 63.752C159.118 62.856 158.702 61.8 158.702 60.584V28.04C158.702 27.656 158.542 27.336 158.222 27.08C157.966 26.824 157.678 26.696 157.358 26.696H148.046C147.726 26.696 147.406 26.824 147.086 27.08C146.83 27.336 146.702 27.656 146.702 28.04V60.584C146.702 61.8 146.286 62.856 145.454 63.752C144.622 64.584 143.598 65 142.382 65H139.694C138.478 65 137.422 64.584 136.526 63.752C135.694 62.856 135.278 61.8 135.278 60.584V26.024C135.278 24.04 135.758 22.248 136.718 20.648C137.742 18.984 139.054 17.672 140.654 16.712C142.254 15.752 144.046 15.272 146.03 15.272H159.374C161.358 15.272 163.15 15.752 164.75 16.712C166.35 17.672 167.63 18.984 168.59 20.648C169.55 22.248 170.03 24.04 170.03 26.024V60.584ZM212.592 54.248C212.592 57.256 211.536 59.816 209.424 61.928C207.376 63.976 204.88 65 201.936 65H188.592C185.648 65 183.12 63.976 181.008 61.928C178.896 59.816 177.84 57.256 177.84 54.248V26.024C177.84 24.04 178.32 22.248 179.28 20.648C180.304 18.984 181.616 17.672 183.216 16.712C184.816 15.752 186.608 15.272 188.592 15.272H199.92C200.816 15.272 201.264 14.888 201.264 14.12V4.51999C201.264 3.24 201.68 2.184 202.512 1.352C203.344 0.519995 204.368 0.103994 205.584 0.103994H208.272C209.488 0.103994 210.512 0.519995 211.344 1.352C212.176 2.184 212.592 3.24 212.592 4.51999V54.248ZM201.264 52.424V28.04C201.264 27.144 200.816 26.696 199.92 26.696H190.608C190.288 26.696 189.968 26.824 189.648 27.08C189.392 27.336 189.264 27.656 189.264 28.04V52.424C189.264 52.744 189.392 53.032 189.648 53.288C189.968 53.544 190.288 53.672 190.608 53.672H199.92C200.816 53.672 201.264 53.256 201.264 52.424ZM248.915 22.376C248.915 23.592 248.499 24.616 247.667 25.448C246.835 26.28 245.811 26.696 244.595 26.696H233.171C232.339 26.696 231.923 27.144 231.923 28.04V60.584C231.923 61.8 231.475 62.856 230.579 63.752C229.747 64.584 228.723 65 227.507 65H224.819C223.603 65 222.579 64.584 221.747 63.752C220.915 62.856 220.499 61.8 220.499 60.584V26.024C220.499 24.04 220.979 22.248 221.939 20.648C222.899 18.984 224.179 17.672 225.779 16.712C227.379 15.752 229.171 15.272 231.155 15.272H244.595C245.811 15.272 246.835 15.72 247.667 16.616C248.499 17.448 248.915 18.504 248.915 19.784V22.376ZM288.844 20.84L275.692 71.336C274.988 73.96 273.548 76.104 271.372 77.768C269.196 79.496 266.7 80.36 263.884 80.36H261.196C259.98 80.36 258.924 79.912 258.028 79.016C257.196 78.184 256.78 77.16 256.78 75.944V73.256C256.78 72.04 257.196 71.016 258.028 70.184C258.924 69.352 259.98 68.936 261.196 68.936H263.884C264.268 68.936 264.524 68.744 264.652 68.36L266.764 60.104C266.956 59.592 266.956 59.048 266.764 58.472L256.972 20.84C256.46 19.368 256.716 18.12 257.74 17.096C258.572 15.88 259.692 15.272 261.1 15.272H263.884C264.908 15.272 265.804 15.592 266.572 16.232C267.34 16.808 267.852 17.608 268.108 18.632L272.428 35.048C272.492 35.304 272.652 35.432 272.908 35.432C273.164 35.432 273.324 35.304 273.388 35.048L277.708 18.632C278.028 17.608 278.54 16.808 279.244 16.232C280.012 15.592 280.876 15.272 281.836 15.272H284.62C286.092 15.272 287.244 15.88 288.076 17.096C289.036 18.12 289.292 19.368 288.844 20.84Z" fill="black"/>
</svg>
