<svg width="100" height="222" viewBox="0 0 100 222" fill="none" xmlns="http://www.w3.org/2000/svg">
<path d="M99.1753 117.977C99.3129 117.265 99.2931 116.531 99.1172 115.828C98.9414 115.125 98.6138 114.468 98.1576 113.906C97.7014 113.343 97.1276 112.887 96.4767 112.571C95.8258 112.254 95.1136 112.085 94.3902 112.074L90.2118 101.542L83.2068 102.526L89.316 117.316C89.3786 118.536 89.8852 119.69 90.7398 120.559C91.5945 121.429 92.7378 121.955 93.9531 122.036C95.1684 122.117 96.3713 121.749 97.3338 121.001C98.2963 120.253 98.9515 119.177 99.1753 117.977Z" fill="#683A41"/>
<path d="M86.2699 114.276L84.0994 109.088L70.5737 83.2824L71.3092 35.5322L71.4504 35.5134C80.1051 34.3673 85.9609 74.3373 86.206 76.0395L94.7518 105.334L96.7861 111.791L86.2699 114.276Z" fill="#50B8E7"/>
<path d="M65.4871 214.965L72.0634 214.965L75.1916 189.54L65.4858 189.541L65.4871 214.965Z" fill="#683A41"/>
<path d="M63.8096 212.813L76.7606 212.812H76.7612C78.95 212.812 81.0492 213.684 82.597 215.235C84.1448 216.787 85.0144 218.891 85.0146 221.085V221.353L63.8099 221.354L63.8096 212.813Z" fill="#DCF0FA"/>
<path d="M5.02051 204.922L10.4164 208.691L27.4856 189.625L19.5222 184.063L5.02051 204.922Z" fill="#683A41"/>
<path d="M4.87195 202.196L15.4977 209.617L15.4981 209.617C17.2939 210.872 18.519 212.79 18.9039 214.95C19.2888 217.109 18.802 219.334 17.5507 221.134L17.3973 221.355L0 209.203L4.87195 202.196Z" fill="#DCF0FA"/>
<path d="M61.8728 208.989L61.5886 161.295L57.4508 131.305L49.7363 157.678L49.7213 157.7L21.7649 198.38L10.8868 192.856L10.9464 192.714C11.6112 191.129 27.276 153.906 31.4866 153.906C31.8543 153.932 32.2227 153.868 32.5602 153.719C32.8976 153.57 33.194 153.342 33.4237 153.053C34.6595 151.399 33.6531 147.889 33.6428 147.854C32.4375 142.844 35.4681 141.138 36.0717 140.853L37.6952 107.261L37.8635 107.273L81.8767 110.367L80.0302 152.366L76.0582 207.393L75.9217 207.408L61.8728 208.989Z" fill="#DCF0FA"/>
<path d="M82.5491 117.811L82.3588 117.795L35.0237 113.971L35.1406 98.2726L37.4574 57.2841L37.4705 57.2557L46.9055 36.725L53.5937 33.6895L63.3518 33.1748L63.3756 33.1808L72.2809 35.3922L81.5447 102.047L82.5491 117.811Z" fill="#50B8E7"/>
<path d="M64.8808 27.9133C70.9203 24.6042 73.1399 17.0142 69.8384 10.9607C66.5369 4.90725 58.9645 2.68251 52.925 5.99166C46.8854 9.3008 44.6658 16.8907 47.9674 22.9442C51.2689 28.9977 58.8413 31.2225 64.8808 27.9133Z" fill="#683A41"/>
<path d="M46.3692 20.0882V15.2212C46.3692 15.2212 42.4533 10.5985 46.7608 9.43409C46.7608 9.43409 47.9356 -2.21044 58.117 3.22367C58.117 3.22367 72.2143 0.894768 70.6479 9.04594C70.6479 9.04594 74.1723 6.91793 72.9975 12.3521L70.7255 21.1055C70.7255 21.1055 71.8227 15.3232 68.2984 14.5469L66.3404 13.3824C66.3404 13.3824 60.8581 18.8165 52.6347 12.218C52.6347 12.218 49.1103 11.3749 49.5019 14.8682C49.8935 18.3616 46.3692 20.0882 46.3692 20.0882Z" fill="#DCF0FA"/>
<path d="M57.6053 106.088C57.6132 105.363 57.4623 104.645 57.1634 103.985C56.8645 103.324 56.4248 102.738 55.8752 102.266C55.3256 101.795 54.6796 101.449 53.9826 101.255C53.2856 101.061 52.5546 101.022 51.841 101.142L45.8448 91.5322L39.1298 93.7603L47.7878 107.212C48.0677 108.4 48.7726 109.444 49.7691 110.146C50.7656 110.848 51.9844 111.159 53.1946 111.021C54.4047 110.882 55.5221 110.303 56.3351 109.394C57.148 108.485 57.5999 107.309 57.6053 106.088Z" fill="#683A41"/>
<path d="M42.1181 103.059L31.27 80.983L31.2795 80.9293C31.3233 80.6849 35.69 56.3826 39.0298 47.4498C42.3907 38.4604 46.9912 36.6555 47.1853 36.5831L47.2824 36.5469L51.4074 40.5127L45.6933 78.7409L51.8526 97.1778L42.1181 103.059Z" fill="#50B8E7"/>
</svg>
