<svg width="243" height="243" viewBox="0 0 243 243" fill="none" xmlns="http://www.w3.org/2000/svg">
<path d="M149.104 95.0867H232.433C238.714 95.0867 243.608 100.533 242.938 106.778L229.355 233.56C228.779 238.929 224.249 243 218.85 243H149.104V95.0867Z" fill="#99774F"/>
<path d="M190.174 153.196V89.8042H211.304C214.222 89.8042 216.587 92.1693 216.587 95.0868V126.783C216.587 141.37 204.761 153.196 190.174 153.196Z" fill="#FFC0CF"/>
<path d="M169.043 243H21.1305C9.46061 243 0 233.539 0 221.87V10.5653C0 4.7303 4.72981 0 10.5653 0H179.608C185.443 0 190.174 4.72981 190.174 10.5653V221.87C190.174 233.539 180.713 243 169.043 243Z" fill="#DBDBDB"/>
<path d="M190.174 10.5653V42.261H0V10.5653C0 4.7303 4.72981 0 10.5653 0H179.608C185.444 0 190.174 4.7303 190.174 10.5653Z" fill="#E5E5E5"/>
<path d="M71.3153 58.1088H0V21.1304H71.3153C81.5267 21.1304 89.8042 29.4084 89.8042 39.6193C89.8042 49.8308 81.5267 58.1088 71.3153 58.1088ZM126.783 36.9783C126.783 31.1433 122.053 26.413 116.217 26.413C110.382 26.413 105.652 31.1428 105.652 36.9783C105.652 42.8132 110.382 47.5435 116.217 47.5435C122.052 47.5435 126.783 42.8132 126.783 36.9783ZM163.761 36.9783C163.761 31.1433 159.031 26.413 153.196 26.413C147.361 26.413 142.631 31.1428 142.631 36.9783C142.631 42.8132 147.36 47.5435 153.196 47.5435C159.031 47.5435 163.761 42.8132 163.761 36.9783ZM169.043 147.913C169.043 107.068 135.932 73.9567 95.0869 73.9567C54.2417 73.9567 21.1305 107.068 21.1305 147.913C21.1305 188.758 54.2417 221.869 95.0869 221.869C135.932 221.869 169.043 188.758 169.043 147.913Z" fill="#9B9B9B"/>
<path d="M26.4132 42.2609H0V21.1304H26.4132H71.3153C81.5267 21.1304 89.8042 29.4084 89.8042 39.6193C89.8042 40.5162 89.7366 41.3974 89.6136 42.2604H71.3153L26.4132 42.2609Z" fill="#C1C1C1"/>
<path d="M95.0868 200.739C65.912 200.739 42.261 177.087 42.261 147.913C42.261 118.739 65.912 95.0872 95.0868 95.0872C124.262 95.0872 147.913 118.739 147.913 147.913C147.913 177.087 124.262 200.739 95.0868 200.739Z" fill="#A2CCDB"/>
<path d="M147.913 147.913C147.913 177.088 124.262 200.739 95.0873 200.739C87.5738 200.739 80.4279 199.167 73.9568 196.339C92.6129 188.187 105.653 169.574 105.653 147.913C105.653 126.251 92.6129 107.638 73.9568 99.4864C80.4279 96.6586 87.5738 95.0864 95.0873 95.0864C124.262 95.0869 147.913 118.738 147.913 147.913Z" fill="#B5E1F4"/>
</svg>
