<svg width="268" height="313" viewBox="0 0 268 313" fill="none" xmlns="http://www.w3.org/2000/svg">
<g clip-path="url(#clip0_3_566)">
<path d="M259.338 115.363H8.43237C6.19674 115.361 4.05341 114.47 2.47259 112.888C0.891759 111.305 0.0025204 109.159 -6.10352e-05 106.92V8.44347C0.0025204 6.20492 0.891759 4.05879 2.47259 2.47589C4.05341 0.892989 6.19674 0.00258481 8.43237 0H259.338C261.574 0.00258481 263.717 0.892989 265.298 2.47589C266.879 4.05879 267.768 6.20492 267.77 8.44347V106.92C267.768 109.159 266.879 111.305 265.298 112.888C263.717 114.47 261.574 115.361 259.338 115.363Z" fill="#F2F2F2"/>
<path d="M200.821 109.978H48.2598C36.8912 109.965 25.9918 105.438 17.9529 97.3883C9.91408 89.3389 5.39222 78.4252 5.37939 67.0417V48.3263C5.39221 36.9428 9.91406 26.0291 17.9529 17.9796C25.9918 9.93017 36.8911 5.40232 48.2598 5.3894H219.512C230.881 5.40232 241.78 9.93017 249.819 17.9796C257.858 26.0291 262.38 36.9428 262.392 48.3263C262.374 64.6718 255.881 80.3425 244.338 91.9005C232.795 103.458 217.145 109.96 200.821 109.978Z" fill="white"/>
<path d="M161.467 33.58H60.6216C60.0448 33.58 59.4917 33.3506 59.0839 32.9422C58.676 32.5338 58.4469 31.98 58.4469 31.4024C58.4469 30.8249 58.676 30.271 59.0839 29.8627C59.4917 29.4543 60.0448 29.2249 60.6216 29.2249H161.467C162.043 29.2249 162.596 29.4543 163.004 29.8627C163.412 30.271 163.641 30.8249 163.641 31.4024C163.641 31.98 163.412 32.5338 163.004 32.9422C162.596 33.3506 162.043 33.58 161.467 33.58Z" fill="#E6E6E6"/>
<path d="M212.516 56.8134H60.6216C60.0448 56.8134 59.4917 56.584 59.0839 56.1756C58.676 55.7672 58.4469 55.2133 58.4469 54.6358C58.4469 54.0583 58.676 53.5044 59.0839 53.096C59.4917 52.6877 60.0448 52.4583 60.6216 52.4583H212.516C213.093 52.4583 213.646 52.6877 214.054 53.096C214.462 53.5044 214.691 54.0583 214.691 54.6358C214.691 55.2133 214.462 55.7672 214.054 56.1756C213.646 56.584 213.093 56.8134 212.516 56.8134Z" fill="#E6E6E6"/>
<path d="M212.516 80.0466H60.6216C60.0448 80.0466 59.4917 79.8171 59.0839 79.4088C58.676 79.0004 58.4469 78.4465 58.4469 77.869C58.4469 77.2914 58.676 76.7376 59.0839 76.3292C59.4917 75.9208 60.0448 75.6914 60.6216 75.6914H212.516C213.093 75.6914 213.646 75.9208 214.054 76.3292C214.462 76.7376 214.691 77.2914 214.691 77.869C214.691 78.4465 214.462 79.0004 214.054 79.4088C213.646 79.8171 213.093 80.0466 212.516 80.0466Z" fill="#E6E6E6"/>
<path d="M212.516 80.0466H60.6216C60.0448 80.0466 59.4917 79.8171 59.0839 79.4088C58.676 79.0004 58.4469 78.4465 58.4469 77.869C58.4469 77.2914 58.676 76.7376 59.0839 76.3292C59.4917 75.9208 60.0448 75.6914 60.6216 75.6914H212.516C213.093 75.6914 213.646 75.9208 214.054 76.3292C214.462 76.7376 214.691 77.2914 214.691 77.869C214.691 78.4465 214.462 79.0004 214.054 79.4088C213.646 79.8171 213.093 80.0466 212.516 80.0466Z" fill="#E6E6E6"/>
<path d="M150.825 59.48C150.849 60.1359 151.017 60.7786 151.316 61.3626C151.615 61.9467 152.038 62.4581 152.556 62.8606C153.073 63.2632 153.673 63.5472 154.312 63.6926C154.952 63.838 155.615 63.8413 156.255 63.7023L164.549 77.3257L168.079 69.8257L159.662 58.0385C159.357 56.9763 158.674 56.063 157.742 55.4714C156.81 54.8799 155.693 54.6513 154.604 54.829C153.515 55.0067 152.528 55.5783 151.832 56.4355C151.135 57.2927 150.777 58.3759 150.825 59.48Z" fill="#452F33"/>
<path d="M213.063 98.524L184.481 83.0006L175.466 74.5315C175.466 74.5315 171.547 73.4808 172.99 72.2049C174.432 70.9289 170.321 69.6983 170.321 69.6983L165.482 65.1519L158.605 70.0241L160.595 73.1132C160.595 73.1132 160.458 78.2272 163.256 77.2434C166.054 76.2595 165.355 80.5009 165.355 80.5009L182.055 106.422L213.063 98.524Z" fill="#50B8E7"/>
<path d="M128.694 83.8986C144.112 83.8986 156.611 71.3834 156.611 55.945C156.611 40.5067 144.112 27.9915 128.694 27.9915C113.276 27.9915 100.777 40.5067 100.777 55.945C100.777 71.3834 113.276 83.8986 128.694 83.8986Z" fill="#50B8E7"/>
<path d="M213.151 302.132H207.346L204.584 279.713H213.151V302.132Z" fill="#452F33"/>
<path d="M216.215 312.202H212.052L211.309 308.267L209.406 312.202H198.365C197.836 312.202 197.321 312.033 196.895 311.719C196.468 311.405 196.153 310.963 195.996 310.457C195.838 309.951 195.847 309.408 196.019 308.907C196.192 308.406 196.52 307.973 196.955 307.672L205.772 301.575V297.597L215.046 298.151L216.215 312.202Z" fill="#50B8E7"/>
<path d="M166.725 302.132H160.921L158.158 279.713H166.725V302.132Z" fill="#452F33"/>
<path d="M169.789 312.202H165.626L164.883 308.267L162.98 312.202H151.94C151.41 312.202 150.895 312.033 150.469 311.719C150.042 311.405 149.728 310.963 149.57 310.457C149.413 309.951 149.421 309.408 149.593 308.907C149.766 308.406 150.094 307.973 150.529 307.672L159.346 301.575V297.597L168.62 298.151L169.789 312.202Z" fill="#50B8E7"/>
<path d="M206.992 132.581H177.694V165.979H206.992V132.581Z" fill="#452F33"/>
<path d="M178.37 149.054L173.412 154.921L164.848 172.974L143.269 224.385L138.706 235.258L142.391 254.478C142.391 254.478 142.987 268.019 142.987 270.235C142.987 274.749 146.757 277.249 146.757 277.249L149.523 291.673L176.342 290.545C176.342 290.545 175.406 274.646 169.789 270.635C164.172 266.625 161.59 245.723 161.59 245.723L158.538 236.45L188.286 201.14L188.478 213.482L188.571 219.457C188.571 219.457 184.215 258.313 189.293 265.854C194.371 273.395 189.397 272.507 189.397 272.507L189.639 288.063L221.415 288.288L214.405 243.504C214.405 243.504 210.845 240.69 212.75 237.861C214.654 235.032 210.904 231.567 210.904 231.567L212.586 196.605C212.586 196.605 210.724 190.566 212.914 189.782C215.105 188.997 213.202 183.803 213.202 183.803L213.528 177.036L206.992 156.05L178.37 149.054Z" fill="#50B8E7"/>
<path d="M207.443 132.581L210.598 123.103L212.852 119.944L213.753 110.917C213.753 86.5454 208.324 90.6038 208.324 90.6038L205.189 82.0321L190.765 81.5808L181.525 90.3817L173.863 93.0896L170.862 108.701L176.342 125.359L177.694 134.386C175.115 139.154 175.333 136.899 177.469 140.479L202.935 147.474C211.95 150.634 211.95 142.51 210.142 140.479C208.335 138.448 207.443 132.581 207.443 132.581Z" fill="#50B8E7"/>
<path d="M196.114 78.5512C203.499 78.5512 209.485 72.5569 209.485 65.1626C209.485 57.7682 203.499 51.7739 196.114 51.7739C188.729 51.7739 182.743 57.7682 182.743 65.1626C182.743 72.5569 188.729 78.5512 196.114 78.5512Z" fill="#452F33"/>
<path d="M213.965 83.0341C214.091 83.247 214.167 83.4855 214.188 83.732C214.209 83.9785 214.175 84.2266 214.087 84.4579C213.999 84.6891 213.86 84.8974 213.68 85.0674C213.501 85.2374 213.285 85.3647 213.05 85.4397C211.256 86.0354 210.152 87.773 208.862 89.1631C207.578 90.5487 205.509 91.6996 203.868 90.7563C202.232 89.8176 202.119 87.421 200.749 86.1212C199.415 84.8575 197.197 85.0109 195.629 85.9722L195.582 86.0011C195.311 86.1779 194.995 86.2713 194.671 86.2698C194.348 86.2684 194.033 86.1721 193.763 85.9929C193.494 85.8136 193.284 85.5594 193.157 85.2615C193.031 84.9636 192.994 84.6352 193.052 84.3168C193.602 81.3901 194.151 78.4637 194.7 75.5376C193.258 79.0175 191.163 82.1887 188.53 84.88C187.804 85.7182 186.885 86.3659 185.852 86.7666C184.915 87.0645 184.004 86.0941 183.094 86.2701C185.357 84.2888 192.965 71.5884 191.604 63.099C190.004 63.2795 188.404 63.4601 186.803 63.6406C186.63 62.8823 186.26 62.1833 185.731 61.6142C185.795 62.3521 185.702 63.0954 185.456 63.794C184.789 63.8708 184.117 63.943 183.45 64.0197C182.522 64.1235 181.512 64.2138 180.714 63.7264C179.384 62.914 179.344 60.9913 179.722 59.4749C180.831 55.0654 184.194 51.3781 188.309 49.4464C192.424 47.5192 193.641 51.8113 197.977 50.4393C206.541 47.7314 213.104 52.362 215.416 60.9552C217.359 68.1629 215.948 75.8129 213.965 83.0341Z" fill="#2C3437"/>
<path d="M250.982 312.494H234.61L234.539 312.366C234.33 311.986 234.128 311.583 233.939 311.169C232.252 307.554 231.54 303.419 230.911 299.771L230.437 297.021C230.38 296.688 230.423 296.345 230.561 296.037C230.699 295.729 230.926 295.469 231.213 295.29C231.5 295.112 231.833 295.023 232.17 295.036C232.507 295.048 232.833 295.161 233.106 295.36C235.594 297.173 238.083 298.984 240.574 300.793C241.516 301.48 242.593 302.275 243.625 303.135C243.724 302.651 243.828 302.165 243.932 301.687C244.004 301.356 244.173 301.055 244.416 300.821C244.66 300.587 244.968 300.431 245.301 300.374C245.634 300.316 245.976 300.359 246.284 300.498C246.593 300.636 246.852 300.863 247.031 301.15L248.946 304.232C250.344 306.483 251.577 308.7 251.326 311.092C251.327 311.121 251.325 311.15 251.319 311.179C251.269 311.572 251.176 311.958 251.041 312.33L250.982 312.494Z" fill="#F0F0F0"/>
<path d="M267.416 312.848L111.832 313C111.677 312.999 111.528 312.937 111.419 312.827C111.309 312.717 111.248 312.567 111.248 312.412C111.248 312.256 111.309 312.107 111.419 311.997C111.528 311.887 111.677 311.824 111.832 311.824L267.416 311.672C267.571 311.673 267.72 311.735 267.829 311.845C267.939 311.955 268 312.105 268 312.26C268 312.416 267.939 312.565 267.829 312.675C267.72 312.785 267.571 312.847 267.416 312.848Z" fill="#CACACA"/>
<path d="M126.156 93.5685L109.043 79.0973C108.458 78.6016 108.093 77.8937 108.029 77.1291C107.964 76.3644 108.206 75.6054 108.699 75.0186L111.849 71.2839C112.344 70.6982 113.051 70.333 113.815 70.2686C114.579 70.2041 115.337 70.4456 115.923 70.94L133.036 85.4112C133.621 85.907 133.986 86.6148 134.05 87.3795C134.115 88.1441 133.873 88.9032 133.38 89.49L130.23 93.2247C129.735 93.8104 129.028 94.1756 128.264 94.24C127.5 94.3045 126.742 94.063 126.156 93.5685Z" fill="#50B8E7"/>
<path d="M109.941 75.3198C109.675 75.636 109.545 76.045 109.579 76.4571C109.614 76.8691 109.811 77.2506 110.126 77.5177L127.239 91.9889C127.555 92.2554 127.964 92.3855 128.375 92.3508C128.787 92.316 129.168 92.1193 129.435 91.8036L132.584 88.069C132.85 87.7527 132.98 87.3437 132.946 86.9317C132.911 86.5196 132.714 86.1382 132.399 85.871L115.286 71.3998C114.97 71.1334 114.561 71.0033 114.15 71.038C113.738 71.0727 113.357 71.2695 113.091 71.5851L109.941 75.3198Z" fill="white"/>
<path d="M119.988 80.9453C119.928 81.0285 119.85 81.0967 119.76 81.1445C119.67 81.1923 119.569 81.2184 119.467 81.2207L116.778 81.2826C116.692 81.2846 116.606 81.2695 116.526 81.2382C116.445 81.207 116.371 81.1601 116.309 81.1003C116.246 81.0406 116.196 80.9691 116.161 80.8899C116.127 80.8108 116.108 80.7255 116.106 80.639C116.104 80.5525 116.119 80.4665 116.15 80.3858C116.181 80.3052 116.228 80.2314 116.288 80.1689C116.347 80.1063 116.419 80.0561 116.498 80.0212C116.577 79.9863 116.662 79.9672 116.748 79.9653L118.507 79.9247L116.775 75.3476C116.714 75.1843 116.719 75.0034 116.791 74.8444C116.863 74.6854 116.995 74.5614 117.158 74.4995C117.321 74.4377 117.501 74.4431 117.66 74.5146C117.819 74.586 117.943 74.7177 118.006 74.8806L120.068 80.3286C120.105 80.4271 120.118 80.5332 120.106 80.6379C120.094 80.7426 120.057 80.8428 119.998 80.9302L119.988 80.9453Z" fill="#50B8E7"/>
<path d="M120.332 82.0955C120.981 82.1908 121.601 82.4274 122.148 82.7886C122.696 83.1498 123.157 83.6267 123.5 84.1859C123.844 84.745 124.061 85.3727 124.135 86.0248C124.21 86.6768 124.141 87.3374 123.934 87.96L136.557 97.6965L128.727 100.394L117.941 90.7348C116.919 90.3162 116.087 89.5369 115.601 88.5447C115.115 87.5525 115.009 86.4163 115.304 85.3514C115.599 84.2864 116.274 83.3668 117.2 82.7667C118.127 82.1667 119.242 81.9278 120.332 82.0955Z" fill="#452F33"/>
<path d="M186.051 86.9097L153.732 106.807C153.732 106.807 140.701 101.979 143.248 99.7443C145.795 97.5094 137.687 95.9985 137.687 95.9985L128.731 89.9652L123.534 96.0129C123.534 96.0129 124.481 105.836 126.093 104.135C127.704 102.434 130.112 107.081 130.112 107.081C130.112 107.081 130.824 112.269 135.41 110.963C139.997 109.658 152.304 123.343 152.304 123.343L192.079 108.489L186.051 86.9097Z" fill="#50B8E7"/>
<path d="M127.712 67.1583C127.338 67.1583 126.968 67.071 126.633 66.9032C126.298 66.7353 126.006 66.4917 125.782 66.1915L119.863 58.2887C119.672 58.0348 119.534 57.7459 119.455 57.4385C119.377 57.1311 119.359 56.8111 119.404 56.497C119.449 56.1828 119.555 55.8806 119.717 55.6075C119.878 55.3344 120.092 55.0959 120.345 54.9055C120.857 54.521 121.501 54.3559 122.135 54.4465C122.448 54.4914 122.75 54.5977 123.023 54.7594C123.296 54.9211 123.534 55.135 123.724 55.3889L127.597 60.5587L137.543 45.6201C137.898 45.0868 138.45 44.7166 139.078 44.5909C139.705 44.4652 140.357 44.5943 140.89 44.9498C141.422 45.3054 141.792 45.8582 141.918 46.4867C142.043 47.1152 141.914 47.7679 141.559 48.3012L129.721 66.0821C129.507 66.4037 129.219 66.6692 128.881 66.8563C128.543 67.0435 128.165 67.1468 127.78 67.1576C127.757 67.158 127.735 67.1583 127.712 67.1583Z" fill="white"/>
</g>
<defs>
<clipPath id="clip0_3_566">
<rect width="268" height="313" fill="white"/>
</clipPath>
</defs>
</svg>
