<svg width="30" height="27" viewBox="0 0 30 27" fill="none" xmlns="http://www.w3.org/2000/svg">
<path d="M12.9167 0H10.8333C9.45312 0 8.33333 1.12171 8.33333 2.50428V8.3476C8.33333 10.1893 9.82812 11.6866 11.6667 11.6866H18.3333C20.1719 11.6866 21.6667 10.1893 21.6667 8.3476V2.50428C21.6667 1.12171 20.5469 0 19.1667 0H17.0833V4.1738C17.0833 4.63292 16.7083 5.00856 16.25 5.00856H13.75C13.2917 5.00856 12.9167 4.63292 12.9167 4.1738V0ZM3.33333 13.3562C1.49479 13.3562 0 14.8535 0 16.6952V23.3733C0 25.215 1.49479 26.7123 3.33333 26.7123H11.6667C13.5052 26.7123 15 25.215 15 23.3733V16.6952C15 14.8535 13.5052 13.3562 11.6667 13.3562H9.58333V17.53C9.58333 17.9891 9.20833 18.3647 8.75 18.3647H6.25C5.79167 18.3647 5.41667 17.9891 5.41667 17.53V13.3562H3.33333ZM18.3333 26.7123H26.6667C28.5052 26.7123 30 25.215 30 23.3733V16.6952C30 14.8535 28.5052 13.3562 26.6667 13.3562H24.5833V17.53C24.5833 17.9891 24.2083 18.3647 23.75 18.3647H21.25C20.7917 18.3647 20.4167 17.9891 20.4167 17.53V13.3562H18.3333C17.5521 13.3562 16.8333 13.6222 16.2656 14.0761C16.5208 14.6187 16.6667 15.2239 16.6667 15.8604V24.208C16.6667 24.8446 16.5208 25.4498 16.2656 25.9923C16.8333 26.4462 17.5521 26.7123 18.3333 26.7123Z" fill="black"/>
</svg>
