<svg width="25" height="13" viewBox="0 0 25 13" fill="none" xmlns="http://www.w3.org/2000/svg">
<path d="M5.95127 0.16401V12.1603H2.69446V3.16307H2.62418L0 4.73289V1.96813L2.9522 0.16401H5.95127ZM3.13601 12.1603V9.81725L7.61117 6.11529C7.90797 5.86926 8.16178 5.63887 8.37266 5.42408C8.58743 5.20542 8.75145 4.98086 8.8647 4.75047C8.98184 4.52008 9.04042 4.26428 9.04042 3.98312C9.04042 3.67464 8.97402 3.41104 8.84127 3.19235C8.7124 2.97369 8.53276 2.80575 8.30238 2.68861C8.07196 2.56756 7.80642 2.50704 7.50575 2.50704C7.20506 2.50704 6.93952 2.56756 6.7091 2.68861C6.48263 2.80967 6.30689 2.98735 6.18194 3.22165C6.05696 3.45596 5.99449 3.74101 5.99449 4.07686H2.90171C2.90171 3.23336 3.09111 2.50704 3.4699 1.89785C3.84869 1.28866 4.38366 0.820057 5.07485 0.492033C5.76606 0.16401 6.57635 0 7.50575 0C8.46637 0 9.29815 0.15425 10.0011 0.462747C10.7079 0.767338 11.2526 1.19689 11.6353 1.75141C12.0219 2.30592 12.2152 2.95611 12.2152 3.70196C12.2152 4.16276 12.1195 4.6216 11.9282 5.07848C11.7368 5.53147 11.3932 6.03328 10.8972 6.58387C10.4013 7.13449 9.69648 7.79055 8.78269 8.55202L7.65805 9.48923V9.55952H12.3441V12.1603H3.13601ZM13.2073 12.3243C12.2624 12.3243 11.4228 12.1622 10.6886 11.8381C9.95838 11.5101 9.38433 11.0591 8.9665 10.485C8.54866 9.91096 8.33779 9.25101 8.33387 8.50516H11.6141C11.618 8.73555 11.6883 8.94253 11.825 9.12606C11.9655 9.30568 12.1569 9.44627 12.399 9.54779C12.6411 9.64934 12.9184 9.70008 13.2308 9.70008C13.5315 9.70008 13.797 9.64738 14.0274 9.54194C14.2578 9.43261 14.4375 9.28225 14.5663 9.09091C14.6952 8.89957 14.7577 8.68088 14.7537 8.43488C14.7577 8.19276 14.6835 7.97797 14.5312 7.79055C14.3828 7.6031 14.1738 7.45666 13.9044 7.35122C13.635 7.24578 13.3245 7.19307 12.973 7.19307H11.7547V4.94377H12.973C13.2972 4.94377 13.5822 4.89106 13.8283 4.78562C14.0782 4.68019 14.2715 4.53374 14.4081 4.34629C14.5487 4.15885 14.6171 3.94408 14.6132 3.70196C14.6171 3.46766 14.5604 3.2607 14.4433 3.08106C14.3261 2.90145 14.1621 2.76086 13.9513 2.65934C13.7443 2.55779 13.5041 2.50704 13.2308 2.50704C12.934 2.50704 12.6685 2.55975 12.4342 2.66519C12.2038 2.77062 12.0222 2.91707 11.8894 3.10449C11.7566 3.29194 11.6883 3.50671 11.6844 3.74882H8.56817C8.57209 3.0147 8.7732 2.36645 9.1715 1.80412C9.57372 1.2418 10.1243 0.800531 10.8233 0.48032C11.5223 0.160106 12.3248 0 13.2308 0C14.1172 0 14.9002 0.150343 15.5797 0.451031C16.263 0.751719 16.7961 1.16565 17.1788 1.69283C17.5654 2.21611 17.7567 2.81552 17.7528 3.49109C17.7606 4.16276 17.5302 4.71338 17.0616 5.14292C16.5969 5.57248 16.0073 5.82629 15.2926 5.90441V5.99812C16.2611 6.10356 16.9894 6.40034 17.4775 6.88848C17.9656 7.37269 18.2058 7.98189 18.198 8.71604C18.2019 9.41892 17.991 10.0418 17.5654 10.5846C17.1436 11.1274 16.5559 11.553 15.8022 11.8615C15.0525 12.17 14.1875 12.3243 13.2073 12.3243ZM14.2566 10.2859V7.75539L19.0832 0.16401H21.3794V3.53797H20.0673L17.4666 7.66168V7.75539H24.5893V10.2859H14.2566ZM20.0907 12.1603V9.51266L20.161 8.41142V0.16401H23.2069V12.1603H20.0907Z" fill="black" fill-opacity="0.25"/>
</svg>
