<svg width="22" height="25" viewBox="0 0 22 25" fill="none" xmlns="http://www.w3.org/2000/svg">
<g clip-path="url(#clip0_3_113)">
<path d="M6.93277 7.03125V9.375H14.6359V7.03125C14.6359 4.87305 12.9123 3.125 10.7843 3.125C8.65634 3.125 6.93277 4.87305 6.93277 7.03125ZM3.85154 9.375V7.03125C3.85154 3.14941 6.95685 0 10.7843 0C14.6118 0 17.7171 3.14941 17.7171 7.03125V9.375H18.4874C20.1869 9.375 21.5686 10.7764 21.5686 12.5V21.875C21.5686 23.5986 20.1869 25 18.4874 25H3.08123C1.38174 25 0 23.5986 0 21.875V12.5C0 10.7764 1.38174 9.375 3.08123 9.375H3.85154Z" fill="black" fill-opacity="0.25"/>
</g>
<defs>
<clipPath id="clip0_3_113">
<rect width="21.5686" height="25" fill="white"/>
</clipPath>
</defs>
</svg>
