<svg width="30" height="30" viewBox="0 0 30 30" fill="none" xmlns="http://www.w3.org/2000/svg">
<path d="M11.3684 14.3684C11.3684 14.1067 11.5805 13.8947 11.8421 13.8947C14.1928 13.8947 16.1053 15.8072 16.1053 18.1579C16.1053 18.4196 15.8931 18.6316 15.6316 18.6316C15.37 18.6316 15.1579 18.4196 15.1579 18.1579C15.1579 16.3296 13.6705 14.8421 11.8421 14.8421C11.5805 14.8421 11.3684 14.6301 11.3684 14.3684ZM5.05266 18.1579C5.05266 14.4142 8.09836 11.3684 11.8421 11.3684C15.5859 11.3684 18.6316 14.4142 18.6316 18.1579C18.6316 21.9016 15.5859 24.9474 11.8421 24.9474C8.09836 24.9474 5.05266 21.9016 5.05266 18.1579ZM6 18.1579C6 21.3793 8.62072 24 11.8421 24C15.0635 24 17.6842 21.3793 17.6842 18.1579C17.6842 14.9365 15.0635 12.3158 11.8421 12.3158C8.62072 12.3158 6 14.9365 6 18.1579ZM21.1579 18.1579C21.1579 13.0212 16.9789 8.84215 11.8421 8.84215C9.58641 8.84215 7.40994 9.65883 5.71348 11.1418C4.03342 12.6105 2.93502 14.6298 2.62061 16.8277C2.58357 17.0866 2.76346 17.3266 3.02244 17.3637C3.28131 17.4 3.52137 17.2208 3.5584 16.9618C4.14334 12.8729 7.70455 9.78949 11.8421 9.78949C16.4565 9.78949 20.2106 13.5435 20.2106 18.1579C20.2106 22.7723 16.4565 26.5263 11.8421 26.5263C7.46889 26.5263 3.80227 23.1133 3.49477 18.7562C3.47637 18.4952 3.24973 18.2991 2.98893 18.317C2.72795 18.3354 2.53137 18.5619 2.54971 18.8229C2.71529 21.1691 3.75539 23.3491 5.47834 24.9614C7.20967 26.5815 9.46975 27.4737 11.8421 27.4737C16.9789 27.4737 21.1579 23.2946 21.1579 18.1579ZM11.8421 22.4211C12.1037 22.4211 12.3158 22.2091 12.3158 21.9474C12.3158 21.6857 12.1037 21.4737 11.8421 21.4737C10.0137 21.4737 8.52633 19.9862 8.52633 18.158C8.52633 17.8963 8.31422 17.6843 8.05266 17.6843C7.79104 17.6843 7.57898 17.8963 7.57898 18.158C7.57893 20.5086 9.49137 22.4211 11.8421 22.4211ZM30 29.5263C30 29.788 29.7879 30 29.5263 30H25.7368C25.4752 30 25.2632 29.788 25.2632 29.5263C25.2632 29.2646 25.4753 29.0527 25.7368 29.0527H26.639C27.0434 29.0527 27.3809 28.7494 27.424 28.3473L29.048 13.1894C29.0722 12.9637 29.002 12.7464 28.8503 12.5776C28.6986 12.4087 28.49 12.3157 28.263 12.3157H26.8421V15.6315C26.8421 17.4735 25.4638 18.9995 23.6842 19.2323V27C23.6842 27.7933 23.3747 28.5156 22.8702 29.0527H23.8421C24.1038 29.0527 24.3158 29.2646 24.3158 29.5263C24.3158 29.788 24.1037 30 23.8421 30H6.15791C5.89629 30 5.68424 29.788 5.68424 29.5263C5.68424 29.2646 5.89635 29.0527 6.15791 29.0527H20.6842C21.816 29.0527 22.7368 28.1319 22.7368 27V15C22.7368 14.7383 22.9489 14.5263 23.2105 14.5263C23.4721 14.5263 23.6842 14.7383 23.6842 15V18.2739C24.9391 18.0495 25.8947 16.9501 25.8947 15.6316V11.8421C25.8947 11.755 25.8238 11.6842 25.7368 11.6842H23.6841V13.1053C23.6841 13.3669 23.472 13.5789 23.2104 13.5789C22.9488 13.5789 22.7368 13.3669 22.7368 13.1053V6H21.9473C21.6857 6 21.4736 5.78801 21.4736 5.52633C21.4736 5.26465 21.6857 5.05266 21.9473 5.05266H22.7368V1.73684C22.7368 1.30148 22.3826 0.947344 21.9473 0.947344H1.73684C1.30148 0.947344 0.947344 1.30148 0.947344 1.73684V2.52633H9C10.4801 2.52633 11.6842 3.73043 11.6842 5.21057C11.6842 6.6907 10.4801 7.89481 9 7.89481H0.947344V27C0.947344 28.1319 1.8682 29.0527 3 29.0527H4.26316C4.52479 29.0527 4.73684 29.2646 4.73684 29.5263C4.73684 29.788 4.52479 30 4.26316 30H0.473672C0.212109 30 0 29.788 0 29.5263C0 29.2646 0.212109 29.0527 0.473672 29.0527H0.814043C0.309492 28.5156 0 27.7933 0 27V1.73684C0 0.77918 0.779121 0 1.73684 0H21.9473C22.9051 0 23.6842 0.77918 23.6842 1.73684V10.7368H25.7368C26.1769 10.7368 26.5577 10.9954 26.7354 11.3684H28.263C28.7552 11.3684 29.2261 11.5784 29.5549 11.9443C29.8839 12.3104 30.0424 12.8009 29.99 13.2903L28.366 28.4482C28.3427 28.6649 28.2807 28.8687 28.1871 29.0526H29.5263C29.7879 29.0527 30 29.2646 30 29.5263ZM0.947344 3.47367V6.94734H9C9.95772 6.94734 10.7368 6.16816 10.7368 5.21051C10.7368 4.25285 9.95772 3.47367 9 3.47367H0.947344ZM14.3684 6.63158C13.4107 6.63158 12.6316 5.8524 12.6316 4.89475C12.6316 3.93709 13.4107 3.15791 14.3684 3.15791C15.3261 3.15791 16.1053 3.93709 16.1053 4.89475C16.1053 5.8524 15.3261 6.63158 14.3684 6.63158ZM14.3684 5.68424C14.8038 5.68424 15.1579 5.3301 15.1579 4.89475C15.1579 4.45939 14.8038 4.10525 14.3684 4.10525C13.9331 4.10525 13.5789 4.45939 13.5789 4.89475C13.5789 5.3301 13.9331 5.68424 14.3684 5.68424ZM2.36842 6H8.68418C8.9458 6 9.15785 5.78801 9.15785 5.52633C9.15785 5.26465 8.94574 5.05266 8.68418 5.05266H2.36842C2.1068 5.05266 1.89475 5.26465 1.89475 5.52633C1.89475 5.78801 2.1068 6 2.36842 6ZM18.7895 6.63158C17.8318 6.63158 17.0527 5.8524 17.0527 4.89475C17.0527 3.93709 17.8318 3.15791 18.7895 3.15791C19.7472 3.15791 20.5263 3.93709 20.5263 4.89475C20.5263 5.8524 19.7472 6.63158 18.7895 6.63158ZM18.7895 5.68424C19.2248 5.68424 19.579 5.3301 19.579 4.89475C19.579 4.45939 19.2248 4.10525 18.7895 4.10525C18.3541 4.10525 18 4.45939 18 4.89475C18 5.3301 18.3541 5.68424 18.7895 5.68424Z" fill="black"/>
</svg>
