<svg width="25" height="18" viewBox="0 0 25 18" fill="none" xmlns="http://www.w3.org/2000/svg">
<path d="M7.5 3.75C7.5 3.05859 8.05859 2.5 8.75 2.5C9.44141 2.5 10 3.05859 10 3.75V4.05469C10 5.13672 9.90625 6.21484 9.72266 7.27734L6.42578 8.26562C4.83984 8.74219 3.75391 10.2031 3.75391 11.8594V14.668C3.75391 16.2305 5.02344 17.5 6.58594 17.5C7.60156 17.5 8.53906 16.957 9.04297 16.0742L9.58594 15.125C10.6328 13.2891 11.4023 11.3086 11.8672 9.24609L15.5547 8.14062L15.0664 9.60547C14.9375 9.98828 15.0039 10.4062 15.2383 10.7305C15.4727 11.0547 15.8516 11.25 16.2539 11.25H21.25C21.9414 11.25 22.5 10.6914 22.5 10C22.5 9.30859 21.9414 8.75 21.25 8.75H17.9844L18.6875 6.64453C18.8359 6.20312 18.7227 5.71484 18.3984 5.37891C18.0742 5.04297 17.5898 4.91797 17.1406 5.05078L12.3594 6.48828C12.4531 5.67969 12.5 4.87109 12.5 4.05469V3.75C12.5 1.67969 10.8203 0 8.75 0C6.67969 0 5 1.67969 5 3.75V5C5 5.69141 5.55859 6.25 6.25 6.25C6.94141 6.25 7.5 5.69141 7.5 5V3.75ZM7.14062 10.6641L9.05469 10.0898C8.64844 11.4102 8.09766 12.6836 7.41016 13.8867L6.86719 14.8359C6.80859 14.9375 6.69922 15.0039 6.57812 15.0039C6.39453 15.0039 6.24609 14.8555 6.24609 14.6719V11.8594C6.24609 11.3086 6.60938 10.8203 7.13672 10.6602L7.14062 10.6641ZM0.9375 13.125C0.417969 13.125 0 13.543 0 14.0625C0 14.582 0.417969 15 0.9375 15H2.51172C2.50391 14.8906 2.5 14.7812 2.5 14.668V13.125H0.9375ZM24.0625 15C24.582 15 25 14.582 25 14.0625C25 13.543 24.582 13.125 24.0625 13.125H11.9492C11.6875 13.7617 11.3945 14.3867 11.0781 15H24.0625Z" fill="black" fill-opacity="0.25"/>
</svg>
