<svg width="280" height="201" viewBox="0 0 280 201" fill="none" xmlns="http://www.w3.org/2000/svg">
<g clip-path="url(#clip0_3_210)">
<path d="M7.41382 200.557C7.41382 200.803 7.61127 201 7.85716 201H279.557C279.803 201 280 200.803 280 200.557C280 200.311 279.803 200.113 279.557 200.113H7.85716C7.61127 200.113 7.41382 200.311 7.41382 200.557Z" fill="#3F3D58"/>
<path d="M94.4162 35.455H7.27596C3.95279 35.455 1.24805 32.7498 1.24805 29.426C1.24805 26.1022 3.95279 23.397 7.27596 23.397H94.4162C97.7394 23.397 100.444 26.1022 100.444 29.426C100.444 32.7498 97.7394 35.455 94.4162 35.455ZM7.27596 24.1422C4.36259 24.1422 1.99315 26.5121 1.99315 29.426C1.99315 32.3399 4.36259 34.7098 7.27596 34.7098H94.4162C97.3296 34.7098 99.699 32.3399 99.699 29.426C99.699 26.5121 97.3296 24.1422 94.4162 24.1422H7.27596Z" fill="#50B8E7"/>
<path d="M94.4162 106.011H7.27596C4.05338 106.011 1.43433 103.392 1.43433 100.168C1.43433 96.9452 4.05338 94.3257 7.27596 94.3257H94.4162C97.6388 94.3257 100.258 96.9452 100.258 100.168C100.258 103.392 97.6388 106.011 94.4162 106.011Z" fill="#50B8E7"/>
<path d="M65.86 11.6854H5.84164C2.61905 11.6854 0 9.0659 0 5.84272C0 2.61954 2.61905 0 5.84164 0H65.86C69.0826 0 71.7016 2.61954 71.7016 5.84272C71.7016 9.0659 69.0826 11.6854 65.86 11.6854Z" fill="#50B8E7"/>
<path d="M94.4162 59.0346H7.27596C3.95279 59.0346 1.24805 56.3294 1.24805 53.0056C1.24805 49.6818 3.95279 46.9766 7.27596 46.9766H94.4162C97.7394 46.9766 100.444 49.6818 100.444 53.0056C100.444 56.3294 97.7394 59.0346 94.4162 59.0346ZM7.27596 47.7218C4.36259 47.7218 1.99315 50.0917 1.99315 53.0056C1.99315 55.9195 4.36259 58.2894 7.27596 58.2894H94.4162C97.3296 58.2894 99.699 55.9195 99.699 53.0056C99.699 50.0917 97.3296 47.7218 94.4162 47.7218H7.27596Z" fill="#50B8E7"/>
<path d="M94.4162 82.6179H7.27596C3.95279 82.6179 1.24805 79.9126 1.24805 76.5888C1.24805 73.2651 3.95279 70.5598 7.27596 70.5598H94.4162C97.7394 70.5598 100.444 73.2651 100.444 76.5888C100.444 79.9126 97.7394 82.6179 94.4162 82.6179ZM7.27596 71.3051C4.36259 71.3051 1.99315 73.6749 1.99315 76.5888C1.99315 79.5028 4.36259 81.8726 7.27596 81.8726H94.4162C97.3296 81.8726 99.699 79.5028 99.699 76.5888C99.699 73.6749 97.3296 71.3051 94.4162 71.3051H7.27596Z" fill="#50B8E7"/>
<path d="M4.28066 19.0671H27.1182C27.6621 19.0671 28.1055 19.5068 28.1055 20.0546C28.1055 20.5986 27.6621 21.042 27.1182 21.042H4.28066C3.73673 21.042 3.2934 20.6023 3.2934 20.0546C3.2934 19.5106 3.73673 19.0671 4.28066 19.0671Z" fill="#50B8E7"/>
<path d="M4.28066 43.2056H27.1182C27.6621 43.2056 28.1055 43.6453 28.1055 44.1893C28.1055 44.7333 27.6621 45.1767 27.1182 45.1767H4.28066C3.73673 45.1767 3.2934 44.737 3.2934 44.193C3.2934 43.649 3.73673 43.2056 4.28066 43.2056Z" fill="#50B8E7"/>
<path d="M4.28066 67.3479H27.1182C27.6621 67.3479 28.1055 67.7876 28.1055 68.3353C28.1055 68.8794 27.6621 69.3191 27.1182 69.3191H4.28066C3.73673 69.3191 3.2934 68.8794 3.2934 68.3316C3.2934 67.7876 3.73673 67.3479 4.28066 67.3479Z" fill="#50B8E7"/>
<path d="M166.561 49.283L158.231 52.0255V40.0308H165.79L166.561 49.283Z" fill="#9F616A"/>
<path d="M159.263 43.3509C163.847 43.3509 167.563 39.6339 167.563 35.0489C167.563 30.4638 163.847 26.7468 159.263 26.7468C154.679 26.7468 150.962 30.4638 150.962 35.0489C150.962 39.6339 154.679 43.3509 159.263 43.3509Z" fill="#9F616A"/>
<path d="M161.543 34.2253C160.153 34.1843 159.241 32.7795 158.7 31.4977C158.16 30.2159 157.605 28.744 156.316 28.2149C155.262 27.7826 153.403 30.7077 152.572 29.929C151.704 29.1166 152.549 24.947 153.47 24.198C154.39 23.4491 155.649 23.3037 156.834 23.2478C159.725 23.1137 162.634 23.3484 165.47 23.9409C167.224 24.3061 169.028 24.8576 170.294 26.1245C171.896 27.7342 172.306 30.16 172.421 32.4293C172.541 34.7507 172.407 37.1802 171.278 39.211C170.149 41.2418 167.787 42.7397 165.522 42.2218C165.295 40.9921 165.526 39.7289 165.615 38.4769C165.701 37.2286 165.611 35.8797 164.847 34.8848C164.087 33.8899 162.456 33.495 161.569 34.3781" fill="#DCF0FA"/>
<path d="M171.755 37.1019C172.585 36.4946 173.58 35.9841 174.601 36.1108C175.704 36.2449 176.639 37.1541 176.922 38.231C177.205 39.3079 176.888 40.4928 176.203 41.3722C175.521 42.2516 174.504 42.8329 173.431 43.1235C172.809 43.2912 172.127 43.362 171.535 43.1086C170.663 42.7323 170.19 41.6181 170.533 40.7313" fill="#DCF0FA"/>
<path d="M139.991 115.215C139.436 117.942 140.453 120.435 142.256 120.782C144.059 121.128 145.97 119.194 146.522 116.467C146.756 115.379 146.719 114.253 146.414 113.18L153.28 70.4216L144.692 68.8044L141.377 112.215C140.672 113.094 140.199 114.123 139.991 115.218V115.215Z" fill="#9F616A"/>
<path d="M158.141 46.5217H152.281C148.138 47.1515 147.013 49.3611 146.071 53.4451C144.633 59.6753 142.796 67.9699 143.161 68.0928C143.746 68.2866 153.723 72.9816 158.808 71.9085L158.141 46.5217Z" fill="#50B8E7"/>
<path d="M163.808 182.719H156.007V193.79H163.808V182.719Z" fill="#9F616A"/>
<path d="M148.41 200.489C147.591 200.489 146.861 200.471 146.309 200.419C144.238 200.229 142.26 198.697 141.265 197.803C140.818 197.4 140.676 196.759 140.907 196.208C141.075 195.813 141.406 195.515 141.82 195.399L147.296 193.834L156.163 187.85L156.264 188.029C156.301 188.096 157.173 189.665 157.463 190.723C157.575 191.125 157.545 191.461 157.378 191.722C157.262 191.901 157.098 192.005 156.968 192.064C157.128 192.232 157.631 192.575 159.181 192.821C161.442 193.179 161.919 190.835 161.938 190.738L161.953 190.66L162.02 190.615C163.096 189.922 163.76 189.605 163.987 189.672C164.128 189.713 164.367 189.788 165.011 196.171C165.075 196.372 165.525 197.84 165.22 199.245C164.888 200.773 158.212 200.247 156.875 200.128C156.838 200.132 151.838 200.489 148.414 200.489H148.41Z" fill="#DCF0FA"/>
<path d="M186.022 174.021L179.403 178.15L185.26 187.544L191.879 183.415L186.022 174.021Z" fill="#9F616A"/>
<path d="M177.231 198.973C176.315 198.973 175.473 198.861 174.873 198.757C174.284 198.652 173.822 198.183 173.725 197.594C173.658 197.169 173.781 196.741 174.072 196.424L177.891 192.199L182.249 182.428L182.428 182.525C182.495 182.563 184.064 183.431 184.872 184.176C185.181 184.459 185.334 184.761 185.327 185.07C185.323 185.286 185.241 185.458 185.159 185.581C185.383 185.64 185.99 185.663 187.435 185.052C189.544 184.161 188.709 181.918 188.672 181.825L188.642 181.75L188.676 181.679C189.224 180.521 189.615 179.902 189.846 179.839C189.991 179.798 190.23 179.734 194.153 184.813C194.313 184.947 195.471 185.957 195.956 187.31C196.481 188.782 190.539 191.871 189.343 192.474C189.306 192.504 183.088 197.024 180.532 198.31C179.519 198.82 178.319 198.977 177.227 198.977L177.231 198.973Z" fill="#DCF0FA"/>
<path d="M169.553 90.1411H147.71L145.728 110.464L154.401 185.555H165.552L161.092 142.185L179.18 181.34L189.089 174.402L174.966 137.848C174.966 137.848 180.01 106.004 176.046 98.0705C172.082 90.1411 169.553 90.1411 169.553 90.1411Z" fill="#DCF0FA"/>
<path d="M180.42 91.378H145.728L156.137 46.5217H171.252L180.42 91.378Z" fill="#50B8E7"/>
<path d="M183.542 115.215C184.097 117.942 183.08 120.435 181.277 120.782C179.474 121.128 177.563 119.194 177.011 116.467C176.777 115.379 176.814 114.253 177.119 113.18L170.253 70.4219L178.841 68.8047L182.156 112.215C182.86 113.095 183.334 114.123 183.542 115.219V115.215Z" fill="#9F616A"/>
<path d="M165.391 46.5217H171.252C175.394 47.1515 176.52 49.3611 177.462 53.4451C178.9 59.6753 180.737 67.9699 180.372 68.0928C179.787 68.2866 169.81 72.9816 164.725 71.9085L165.391 46.5217Z" fill="#50B8E7"/>
</g>
<defs>
<clipPath id="clip0_3_210">
<rect width="280" height="201" fill="white"/>
</clipPath>
</defs>
</svg>
