<svg width="43" height="40" viewBox="0 0 43 40" fill="none" xmlns="http://www.w3.org/2000/svg">
<path d="M21.4922 0C22.2109 0 22.8672 0.40625 23.1797 1.05469L28.539 12.0938L40.5078 13.8594C41.2109 13.9609 41.7968 14.4531 42.0156 15.1328C42.2343 15.8125 42.0547 16.5469 41.5547 17.0469L32.875 25.6562L34.9218 37.8125C35.039 38.5156 34.75 39.2266 34.1718 39.6484C33.5937 40.0703 32.8203 40.1172 32.1953 39.7812L21.4922 34.0625L10.7968 39.7734C10.164 40.1094 9.39841 40.0625 8.82028 39.6406C8.24216 39.2188 7.94528 38.5078 8.06247 37.8047L10.1093 25.6484L1.42966 17.0469C0.921848 16.5469 0.749973 15.8047 0.968723 15.1328C1.18747 14.4609 1.77341 13.9687 2.47654 13.8594L14.4453 12.0938L19.8047 1.05469C20.125 0.40625 20.7734 0 21.4922 0ZM21.4922 6.17188L17.3906 14.625C17.1172 15.1797 16.5937 15.5703 15.9765 15.6641L6.73435 17.0234L13.4453 23.6719C13.875 24.1016 14.0781 24.7109 13.9765 25.3125L12.3906 34.6641L20.6093 30.2734C21.164 29.9766 21.8281 29.9766 22.375 30.2734L30.5937 34.6641L29.0156 25.3203C28.914 24.7188 29.1093 24.1094 29.5468 23.6797L36.2578 17.0312L27.0156 15.6641C26.4062 15.5703 25.875 15.1875 25.6015 14.625L21.4922 6.17188Z" fill="#50B8E7"/>
</svg>
